<?xml version="1.0" encoding="utf-8"?>
<svg xmlns="http://www.w3.org/2000/svg" xmlns:xlink="http://www.w3.org/1999/xlink" width="250" height="62.5" viewBox="0 0 1000 250">
<defs>
  <clipPath id="clip340">
    <rect x="0" y="0" width="1000" height="250"/>
  </clipPath>
</defs>
<path clip-path="url(#clip340)" d="
M0 250 L1000 250 L1000 0 L0 0  Z
  " fill="#ffffff" fill-rule="evenodd" fill-opacity="1"/>
<defs>
  <clipPath id="clip341">
    <rect x="200" y="0" width="701" height="250"/>
  </clipPath>
</defs>
<path clip-path="url(#clip340)" d="
M49.4756 220.12 L488.25 220.12 L488.25 21.418 L49.4756 21.418  Z
  " fill="#ffffff" fill-rule="evenodd" fill-opacity="1"/>
<defs>
  <clipPath id="clip342">
    <rect x="49" y="21" width="440" height="200"/>
  </clipPath>
</defs>
<polyline clip-path="url(#clip342)" style="stroke:#000000; stroke-width:0.5; stroke-opacity:0.1; fill:none" points="
  102.915,220.12 102.915,21.418 
  "/>
<polyline clip-path="url(#clip342)" style="stroke:#000000; stroke-width:0.5; stroke-opacity:0.1; fill:none" points="
  185.785,220.12 185.785,21.418 
  "/>
<polyline clip-path="url(#clip342)" style="stroke:#000000; stroke-width:0.5; stroke-opacity:0.1; fill:none" points="
  268.655,220.12 268.655,21.418 
  "/>
<polyline clip-path="url(#clip342)" style="stroke:#000000; stroke-width:0.5; stroke-opacity:0.1; fill:none" points="
  351.526,220.12 351.526,21.418 
  "/>
<polyline clip-path="url(#clip342)" style="stroke:#000000; stroke-width:0.5; stroke-opacity:0.1; fill:none" points="
  434.396,220.12 434.396,21.418 
  "/>
<polyline clip-path="url(#clip340)" style="stroke:#000000; stroke-width:1; stroke-opacity:1; fill:none" points="
  49.4756,220.12 488.25,220.12 
  "/>
<polyline clip-path="url(#clip340)" style="stroke:#000000; stroke-width:1; stroke-opacity:1; fill:none" points="
  102.915,220.12 102.915,217.736 
  "/>
<polyline clip-path="url(#clip340)" style="stroke:#000000; stroke-width:1; stroke-opacity:1; fill:none" points="
  185.785,220.12 185.785,217.736 
  "/>
<polyline clip-path="url(#clip340)" style="stroke:#000000; stroke-width:1; stroke-opacity:1; fill:none" points="
  268.655,220.12 268.655,217.736 
  "/>
<polyline clip-path="url(#clip340)" style="stroke:#000000; stroke-width:1; stroke-opacity:1; fill:none" points="
  351.526,220.12 351.526,217.736 
  "/>
<polyline clip-path="url(#clip340)" style="stroke:#000000; stroke-width:1; stroke-opacity:1; fill:none" points="
  434.396,220.12 434.396,217.736 
  "/>
<path clip-path="url(#clip340)" d="M 0 0 M96.2624 233.702 Q95.4754 233.702 95.0125 234.24 Q94.5553 234.778 94.5553 235.716 Q94.5553 236.648 95.0125 237.192 Q95.4754 237.73 96.2624 237.73 Q97.0495 237.73 97.5067 237.192 Q97.9696 236.648 97.9696 235.716 Q97.9696 234.778 97.5067 234.24 Q97.0495 233.702 96.2624 233.702 M98.583 230.039 L98.583 231.104 Q98.1432 230.895 97.6918 230.785 Q97.2462 230.676 96.8064 230.676 Q95.649 230.676 95.0356 231.457 Q94.428 232.238 94.3412 233.818 Q94.6826 233.314 95.1976 233.048 Q95.7127 232.776 96.3319 232.776 Q97.634 232.776 98.3863 233.569 Q99.1444 234.356 99.1444 235.716 Q99.1444 237.047 98.3573 237.851 Q97.5703 238.656 96.2624 238.656 Q94.7636 238.656 93.9708 237.51 Q93.178 236.358 93.178 234.177 Q93.178 232.128 94.1502 230.913 Q95.1224 229.692 96.7601 229.692 Q97.1999 229.692 97.6455 229.779 Q98.0969 229.865 98.583 230.039 Z" fill="#000000" fill-rule="evenodd" fill-opacity="1" /><path clip-path="url(#clip340)" d="M 0 0 M102.912 230.618 Q102.009 230.618 101.552 231.509 Q101.1 232.394 101.1 234.177 Q101.1 235.953 101.552 236.844 Q102.009 237.73 102.912 237.73 Q103.82 237.73 104.272 236.844 Q104.729 235.953 104.729 234.177 Q104.729 232.394 104.272 231.509 Q103.82 230.618 102.912 230.618 M102.912 229.692 Q104.364 229.692 105.128 230.843 Q105.898 231.989 105.898 234.177 Q105.898 236.358 105.128 237.51 Q104.364 238.656 102.912 238.656 Q101.459 238.656 100.69 237.51 Q99.9256 236.358 99.9256 234.177 Q99.9256 231.989 100.69 230.843 Q101.459 229.692 102.912 229.692 Z" fill="#000000" fill-rule="evenodd" fill-opacity="1" /><path clip-path="url(#clip340)" d="M 0 0 M109.665 230.618 Q108.762 230.618 108.305 231.509 Q107.854 232.394 107.854 234.177 Q107.854 235.953 108.305 236.844 Q108.762 237.73 109.665 237.73 Q110.574 237.73 111.025 236.844 Q111.482 235.953 111.482 234.177 Q111.482 232.394 111.025 231.509 Q110.574 230.618 109.665 230.618 M109.665 229.692 Q111.118 229.692 111.882 230.843 Q112.651 231.989 112.651 234.177 Q112.651 236.358 111.882 237.51 Q111.118 238.656 109.665 238.656 Q108.213 238.656 107.443 237.51 Q106.679 236.358 106.679 234.177 Q106.679 231.989 107.443 230.843 Q108.213 229.692 109.665 229.692 Z" fill="#000000" fill-rule="evenodd" fill-opacity="1" /><path clip-path="url(#clip340)" d="M 0 0 M179.032 234.385 Q178.198 234.385 177.718 234.831 Q177.243 235.276 177.243 236.057 Q177.243 236.839 177.718 237.284 Q178.198 237.73 179.032 237.73 Q179.865 237.73 180.345 237.284 Q180.826 236.833 180.826 236.057 Q180.826 235.276 180.345 234.831 Q179.871 234.385 179.032 234.385 M177.863 233.887 Q177.11 233.702 176.688 233.187 Q176.271 232.672 176.271 231.931 Q176.271 230.895 177.006 230.294 Q177.747 229.692 179.032 229.692 Q180.322 229.692 181.057 230.294 Q181.792 230.895 181.792 231.931 Q181.792 232.672 181.37 233.187 Q180.953 233.702 180.206 233.887 Q181.051 234.084 181.52 234.657 Q181.995 235.23 181.995 236.057 Q181.995 237.313 181.225 237.984 Q180.461 238.656 179.032 238.656 Q177.602 238.656 176.833 237.984 Q176.069 237.313 176.069 236.057 Q176.069 235.23 176.543 234.657 Q177.018 234.084 177.863 233.887 M177.434 232.041 Q177.434 232.713 177.851 233.089 Q178.274 233.465 179.032 233.465 Q179.784 233.465 180.206 233.089 Q180.635 232.713 180.635 232.041 Q180.635 231.37 180.206 230.994 Q179.784 230.618 179.032 230.618 Q178.274 230.618 177.851 230.994 Q177.434 231.37 177.434 232.041 Z" fill="#000000" fill-rule="evenodd" fill-opacity="1" /><path clip-path="url(#clip340)" d="M 0 0 M185.762 230.618 Q184.859 230.618 184.402 231.509 Q183.951 232.394 183.951 234.177 Q183.951 235.953 184.402 236.844 Q184.859 237.73 185.762 237.73 Q186.67 237.73 187.122 236.844 Q187.579 235.953 187.579 234.177 Q187.579 232.394 187.122 231.509 Q186.67 230.618 185.762 230.618 M185.762 229.692 Q187.214 229.692 187.978 230.843 Q188.748 231.989 188.748 234.177 Q188.748 236.358 187.978 237.51 Q187.214 238.656 185.762 238.656 Q184.309 238.656 183.54 237.51 Q182.776 236.358 182.776 234.177 Q182.776 231.989 183.54 230.843 Q184.309 229.692 185.762 229.692 Z" fill="#000000" fill-rule="evenodd" fill-opacity="1" /><path clip-path="url(#clip340)" d="M 0 0 M192.515 230.618 Q191.613 230.618 191.155 231.509 Q190.704 232.394 190.704 234.177 Q190.704 235.953 191.155 236.844 Q191.613 237.73 192.515 237.73 Q193.424 237.73 193.875 236.844 Q194.332 235.953 194.332 234.177 Q194.332 232.394 193.875 231.509 Q193.424 230.618 192.515 230.618 M192.515 229.692 Q193.968 229.692 194.732 230.843 Q195.501 231.989 195.501 234.177 Q195.501 236.358 194.732 237.51 Q193.968 238.656 192.515 238.656 Q191.063 238.656 190.293 237.51 Q189.529 236.358 189.529 234.177 Q189.529 231.989 190.293 230.843 Q191.063 229.692 192.515 229.692 Z" fill="#000000" fill-rule="evenodd" fill-opacity="1" /><path clip-path="url(#clip340)" d="M 0 0 M256.121 237.504 L258.031 237.504 L258.031 230.913 L255.953 231.329 L255.953 230.265 L258.019 229.848 L259.188 229.848 L259.188 237.504 L261.098 237.504 L261.098 238.488 L256.121 238.488 L256.121 237.504 Z" fill="#000000" fill-rule="evenodd" fill-opacity="1" /><path clip-path="url(#clip340)" d="M 0 0 M264.865 230.618 Q263.962 230.618 263.505 231.509 Q263.054 232.394 263.054 234.177 Q263.054 235.953 263.505 236.844 Q263.962 237.73 264.865 237.73 Q265.774 237.73 266.225 236.844 Q266.682 235.953 266.682 234.177 Q266.682 232.394 266.225 231.509 Q265.774 230.618 264.865 230.618 M264.865 229.692 Q266.318 229.692 267.081 230.843 Q267.851 231.989 267.851 234.177 Q267.851 236.358 267.081 237.51 Q266.318 238.656 264.865 238.656 Q263.412 238.656 262.643 237.51 Q261.879 236.358 261.879 234.177 Q261.879 231.989 262.643 230.843 Q263.412 229.692 264.865 229.692 Z" fill="#000000" fill-rule="evenodd" fill-opacity="1" /><path clip-path="url(#clip340)" d="M 0 0 M271.618 230.618 Q270.716 230.618 270.258 231.509 Q269.807 232.394 269.807 234.177 Q269.807 235.953 270.258 236.844 Q270.716 237.73 271.618 237.73 Q272.527 237.73 272.978 236.844 Q273.436 235.953 273.436 234.177 Q273.436 232.394 272.978 231.509 Q272.527 230.618 271.618 230.618 M271.618 229.692 Q273.071 229.692 273.835 230.843 Q274.605 231.989 274.605 234.177 Q274.605 236.358 273.835 237.51 Q273.071 238.656 271.618 238.656 Q270.166 238.656 269.396 237.51 Q268.632 236.358 268.632 234.177 Q268.632 231.989 269.396 230.843 Q270.166 229.692 271.618 229.692 Z" fill="#000000" fill-rule="evenodd" fill-opacity="1" /><path clip-path="url(#clip340)" d="M 0 0 M278.372 230.618 Q277.469 230.618 277.012 231.509 Q276.561 232.394 276.561 234.177 Q276.561 235.953 277.012 236.844 Q277.469 237.73 278.372 237.73 Q279.28 237.73 279.732 236.844 Q280.189 235.953 280.189 234.177 Q280.189 232.394 279.732 231.509 Q279.28 230.618 278.372 230.618 M278.372 229.692 Q279.824 229.692 280.588 230.843 Q281.358 231.989 281.358 234.177 Q281.358 236.358 280.588 237.51 Q279.824 238.656 278.372 238.656 Q276.919 238.656 276.15 237.51 Q275.386 236.358 275.386 234.177 Q275.386 231.989 276.15 230.843 Q276.919 229.692 278.372 229.692 Z" fill="#000000" fill-rule="evenodd" fill-opacity="1" /><path clip-path="url(#clip340)" d="M 0 0 M339.191 237.504 L341.101 237.504 L341.101 230.913 L339.023 231.329 L339.023 230.265 L341.089 229.848 L342.258 229.848 L342.258 237.504 L344.168 237.504 L344.168 238.488 L339.191 238.488 L339.191 237.504 Z" fill="#000000" fill-rule="evenodd" fill-opacity="1" /><path clip-path="url(#clip340)" d="M 0 0 M346.442 237.504 L350.522 237.504 L350.522 238.488 L345.036 238.488 L345.036 237.504 Q345.701 236.816 346.847 235.658 Q347.999 234.495 348.294 234.159 Q348.855 233.528 349.075 233.094 Q349.301 232.655 349.301 232.232 Q349.301 231.544 348.815 231.11 Q348.334 230.676 347.559 230.676 Q347.009 230.676 346.396 230.866 Q345.788 231.057 345.094 231.445 L345.094 230.265 Q345.8 229.981 346.413 229.836 Q347.027 229.692 347.536 229.692 Q348.878 229.692 349.677 230.363 Q350.476 231.034 350.476 232.157 Q350.476 232.689 350.273 233.17 Q350.076 233.644 349.55 234.292 Q349.405 234.46 348.63 235.265 Q347.854 236.063 346.442 237.504 Z" fill="#000000" fill-rule="evenodd" fill-opacity="1" /><path clip-path="url(#clip340)" d="M 0 0 M354.289 230.618 Q353.386 230.618 352.929 231.509 Q352.478 232.394 352.478 234.177 Q352.478 235.953 352.929 236.844 Q353.386 237.73 354.289 237.73 Q355.198 237.73 355.649 236.844 Q356.106 235.953 356.106 234.177 Q356.106 232.394 355.649 231.509 Q355.198 230.618 354.289 230.618 M354.289 229.692 Q355.742 229.692 356.506 230.843 Q357.275 231.989 357.275 234.177 Q357.275 236.358 356.506 237.51 Q355.742 238.656 354.289 238.656 Q352.837 238.656 352.067 237.51 Q351.303 236.358 351.303 234.177 Q351.303 231.989 352.067 230.843 Q352.837 229.692 354.289 229.692 Z" fill="#000000" fill-rule="evenodd" fill-opacity="1" /><path clip-path="url(#clip340)" d="M 0 0 M361.043 230.618 Q360.14 230.618 359.683 231.509 Q359.231 232.394 359.231 234.177 Q359.231 235.953 359.683 236.844 Q360.14 237.73 361.043 237.73 Q361.951 237.73 362.403 236.844 Q362.86 235.953 362.86 234.177 Q362.86 232.394 362.403 231.509 Q361.951 230.618 361.043 230.618 M361.043 229.692 Q362.495 229.692 363.259 230.843 Q364.029 231.989 364.029 234.177 Q364.029 236.358 363.259 237.51 Q362.495 238.656 361.043 238.656 Q359.59 238.656 358.82 237.51 Q358.057 236.358 358.057 234.177 Q358.057 231.989 358.82 230.843 Q359.59 229.692 361.043 229.692 Z" fill="#000000" fill-rule="evenodd" fill-opacity="1" /><path clip-path="url(#clip340)" d="M 0 0 M421.801 237.504 L423.711 237.504 L423.711 230.913 L421.633 231.329 L421.633 230.265 L423.699 229.848 L424.868 229.848 L424.868 237.504 L426.778 237.504 L426.778 238.488 L421.801 238.488 L421.801 237.504 Z" fill="#000000" fill-rule="evenodd" fill-opacity="1" /><path clip-path="url(#clip340)" d="M 0 0 M431.257 230.866 L428.306 235.479 L431.257 235.479 L431.257 230.866 M430.95 229.848 L432.42 229.848 L432.42 235.479 L433.653 235.479 L433.653 236.451 L432.42 236.451 L432.42 238.488 L431.257 238.488 L431.257 236.451 L427.356 236.451 L427.356 235.322 L430.95 229.848 Z" fill="#000000" fill-rule="evenodd" fill-opacity="1" /><path clip-path="url(#clip340)" d="M 0 0 M437.42 230.618 Q436.517 230.618 436.06 231.509 Q435.609 232.394 435.609 234.177 Q435.609 235.953 436.06 236.844 Q436.517 237.73 437.42 237.73 Q438.329 237.73 438.78 236.844 Q439.237 235.953 439.237 234.177 Q439.237 232.394 438.78 231.509 Q438.329 230.618 437.42 230.618 M437.42 229.692 Q438.873 229.692 439.637 230.843 Q440.406 231.989 440.406 234.177 Q440.406 236.358 439.637 237.51 Q438.873 238.656 437.42 238.656 Q435.968 238.656 435.198 237.51 Q434.434 236.358 434.434 234.177 Q434.434 231.989 435.198 230.843 Q435.968 229.692 437.42 229.692 Z" fill="#000000" fill-rule="evenodd" fill-opacity="1" /><path clip-path="url(#clip340)" d="M 0 0 M444.174 230.618 Q443.271 230.618 442.814 231.509 Q442.362 232.394 442.362 234.177 Q442.362 235.953 442.814 236.844 Q443.271 237.73 444.174 237.73 Q445.082 237.73 445.533 236.844 Q445.991 235.953 445.991 234.177 Q445.991 232.394 445.533 231.509 Q445.082 230.618 444.174 230.618 M444.174 229.692 Q445.626 229.692 446.39 230.843 Q447.16 231.989 447.16 234.177 Q447.16 236.358 446.39 237.51 Q445.626 238.656 444.174 238.656 Q442.721 238.656 441.951 237.51 Q441.187 236.358 441.187 234.177 Q441.187 231.989 441.951 230.843 Q442.721 229.692 444.174 229.692 Z" fill="#000000" fill-rule="evenodd" fill-opacity="1" /><path clip-path="url(#clip340)" d="M 0 0 M239.366 250.456 L240.973 250.456 L240.973 262.336 L239.366 262.336 L239.366 250.456 Z" fill="#000000" fill-rule="evenodd" fill-opacity="1" /><path clip-path="url(#clip340)" d="M 0 0 M243.957 250.894 L243.957 253.424 L246.973 253.424 L246.973 254.562 L243.957 254.562 L243.957 259.4 Q243.957 260.49 244.251 260.8 Q244.554 261.111 245.469 261.111 L246.973 261.111 L246.973 262.336 L245.469 262.336 Q243.774 262.336 243.129 261.707 Q242.485 261.071 242.485 259.4 L242.485 254.562 L241.411 254.562 L241.411 253.424 L242.485 253.424 L242.485 250.894 L243.957 250.894 Z" fill="#000000" fill-rule="evenodd" fill-opacity="1" /><path clip-path="url(#clip340)" d="M 0 0 M256.131 257.514 L256.131 258.23 L249.4 258.23 Q249.495 259.742 250.307 260.538 Q251.126 261.325 252.582 261.325 Q253.426 261.325 254.214 261.119 Q255.009 260.912 255.789 260.498 L255.789 261.882 Q255.001 262.217 254.174 262.392 Q253.346 262.567 252.495 262.567 Q250.362 262.567 249.113 261.325 Q247.872 260.084 247.872 257.967 Q247.872 255.779 249.049 254.498 Q250.235 253.209 252.24 253.209 Q254.039 253.209 255.081 254.371 Q256.131 255.525 256.131 257.514 M254.667 257.084 Q254.651 255.883 253.991 255.167 Q253.338 254.45 252.256 254.45 Q251.031 254.45 250.291 255.143 Q249.559 255.835 249.447 257.092 L254.667 257.084 Z" fill="#000000" fill-rule="evenodd" fill-opacity="1" /><path clip-path="url(#clip340)" d="M 0 0 M262.831 254.793 Q262.584 254.649 262.29 254.586 Q262.004 254.514 261.654 254.514 Q260.412 254.514 259.744 255.326 Q259.083 256.129 259.083 257.641 L259.083 262.336 L257.611 262.336 L257.611 253.424 L259.083 253.424 L259.083 254.809 Q259.545 253.997 260.285 253.607 Q261.025 253.209 262.083 253.209 Q262.234 253.209 262.417 253.233 Q262.6 253.249 262.823 253.289 L262.831 254.793 Z" fill="#000000" fill-rule="evenodd" fill-opacity="1" /><path clip-path="url(#clip340)" d="M 0 0 M268.417 257.856 Q266.643 257.856 265.958 258.262 Q265.274 258.668 265.274 259.646 Q265.274 260.426 265.783 260.888 Q266.3 261.341 267.184 261.341 Q268.401 261.341 269.133 260.482 Q269.873 259.615 269.873 258.182 L269.873 257.856 L268.417 257.856 M271.337 257.251 L271.337 262.336 L269.873 262.336 L269.873 260.983 Q269.372 261.795 268.624 262.185 Q267.876 262.567 266.794 262.567 Q265.425 262.567 264.614 261.803 Q263.81 261.031 263.81 259.742 Q263.81 258.238 264.812 257.474 Q265.823 256.71 267.82 256.71 L269.873 256.71 L269.873 256.567 Q269.873 255.556 269.205 255.007 Q268.544 254.45 267.343 254.45 Q266.579 254.45 265.855 254.633 Q265.131 254.816 264.462 255.182 L264.462 253.83 Q265.266 253.519 266.022 253.368 Q266.778 253.209 267.494 253.209 Q269.428 253.209 270.382 254.212 Q271.337 255.214 271.337 257.251 Z" fill="#000000" fill-rule="evenodd" fill-opacity="1" /><path clip-path="url(#clip340)" d="M 0 0 M274.321 250.894 L274.321 253.424 L277.337 253.424 L277.337 254.562 L274.321 254.562 L274.321 259.4 Q274.321 260.49 274.616 260.8 Q274.918 261.111 275.833 261.111 L277.337 261.111 L277.337 262.336 L275.833 262.336 Q274.138 262.336 273.494 261.707 Q272.849 261.071 272.849 259.4 L272.849 254.562 L271.775 254.562 L271.775 253.424 L272.849 253.424 L272.849 250.894 L274.321 250.894 Z" fill="#000000" fill-rule="evenodd" fill-opacity="1" /><path clip-path="url(#clip340)" d="M 0 0 M278.873 253.424 L280.337 253.424 L280.337 262.336 L278.873 262.336 L278.873 253.424 M278.873 249.955 L280.337 249.955 L280.337 251.809 L278.873 251.809 L278.873 249.955 Z" fill="#000000" fill-rule="evenodd" fill-opacity="1" /><path clip-path="url(#clip340)" d="M 0 0 M285.326 254.45 Q284.148 254.45 283.464 255.373 Q282.78 256.289 282.78 257.888 Q282.78 259.487 283.456 260.41 Q284.14 261.325 285.326 261.325 Q286.496 261.325 287.18 260.402 Q287.864 259.479 287.864 257.888 Q287.864 256.304 287.18 255.381 Q286.496 254.45 285.326 254.45 M285.326 253.209 Q287.236 253.209 288.326 254.45 Q289.416 255.692 289.416 257.888 Q289.416 260.076 288.326 261.325 Q287.236 262.567 285.326 262.567 Q283.408 262.567 282.318 261.325 Q281.236 260.076 281.236 257.888 Q281.236 255.692 282.318 254.45 Q283.408 253.209 285.326 253.209 Z" fill="#000000" fill-rule="evenodd" fill-opacity="1" /><path clip-path="url(#clip340)" d="M 0 0 M298.36 256.957 L298.36 262.336 L296.896 262.336 L296.896 257.005 Q296.896 255.739 296.402 255.111 Q295.909 254.482 294.922 254.482 Q293.737 254.482 293.052 255.238 Q292.368 255.994 292.368 257.299 L292.368 262.336 L290.896 262.336 L290.896 253.424 L292.368 253.424 L292.368 254.809 Q292.893 254.005 293.601 253.607 Q294.318 253.209 295.249 253.209 Q296.784 253.209 297.572 254.164 Q298.36 255.111 298.36 256.957 Z" fill="#000000" fill-rule="evenodd" fill-opacity="1" /><polyline clip-path="url(#clip342)" style="stroke:#000000; stroke-width:0.5; stroke-opacity:0.1; fill:none" points="
  49.4756,203.596 488.25,203.596 
  "/>
<polyline clip-path="url(#clip342)" style="stroke:#000000; stroke-width:0.5; stroke-opacity:0.1; fill:none" points="
  49.4756,156.607 488.25,156.607 
  "/>
<polyline clip-path="url(#clip342)" style="stroke:#000000; stroke-width:0.5; stroke-opacity:0.1; fill:none" points="
  49.4756,109.617 488.25,109.617 
  "/>
<polyline clip-path="url(#clip342)" style="stroke:#000000; stroke-width:0.5; stroke-opacity:0.1; fill:none" points="
  49.4756,62.628 488.25,62.628 
  "/>
<polyline clip-path="url(#clip340)" style="stroke:#000000; stroke-width:1; stroke-opacity:1; fill:none" points="
  49.4756,220.12 49.4756,21.418 
  "/>
<polyline clip-path="url(#clip340)" style="stroke:#000000; stroke-width:1; stroke-opacity:1; fill:none" points="
  49.4756,203.596 54.7409,203.596 
  "/>
<polyline clip-path="url(#clip340)" style="stroke:#000000; stroke-width:1; stroke-opacity:1; fill:none" points="
  49.4756,156.607 54.7409,156.607 
  "/>
<polyline clip-path="url(#clip340)" style="stroke:#000000; stroke-width:1; stroke-opacity:1; fill:none" points="
  49.4756,109.617 54.7409,109.617 
  "/>
<polyline clip-path="url(#clip340)" style="stroke:#000000; stroke-width:1; stroke-opacity:1; fill:none" points="
  49.4756,62.628 54.7409,62.628 
  "/>
<path clip-path="url(#clip340)" d="M 0 0 M22.647 200.046 Q21.7442 200.046 21.287 200.937 Q20.8356 201.823 20.8356 203.605 Q20.8356 205.382 21.287 206.273 Q21.7442 207.158 22.647 207.158 Q23.5555 207.158 24.0069 206.273 Q24.4641 205.382 24.4641 203.605 Q24.4641 201.823 24.0069 200.937 Q23.5555 200.046 22.647 200.046 M22.647 199.12 Q24.0995 199.12 24.8634 200.272 Q25.6331 201.418 25.6331 203.605 Q25.6331 205.787 24.8634 206.938 Q24.0995 208.084 22.647 208.084 Q21.1944 208.084 20.4248 206.938 Q19.6609 205.787 19.6609 203.605 Q19.6609 201.418 20.4248 200.272 Q21.1944 199.12 22.647 199.12 Z" fill="#000000" fill-rule="evenodd" fill-opacity="1" /><path clip-path="url(#clip340)" d="M 0 0 M26.9004 206.447 L28.1215 206.447 L28.1215 207.916 L26.9004 207.916 L26.9004 206.447 Z" fill="#000000" fill-rule="evenodd" fill-opacity="1" /><path clip-path="url(#clip340)" d="M 0 0 M30.3958 206.933 L34.4756 206.933 L34.4756 207.916 L28.9895 207.916 L28.9895 206.933 Q29.655 206.244 30.8009 205.087 Q31.9525 203.923 32.2476 203.588 Q32.8089 202.957 33.0289 202.523 Q33.2545 202.083 33.2545 201.661 Q33.2545 200.972 32.7684 200.538 Q32.2881 200.104 31.5127 200.104 Q30.9629 200.104 30.3495 200.295 Q29.7418 200.486 29.0474 200.874 L29.0474 199.693 Q29.7534 199.41 30.3668 199.265 Q30.9803 199.12 31.4895 199.12 Q32.8321 199.12 33.6307 199.791 Q34.4293 200.463 34.4293 201.585 Q34.4293 202.118 34.2268 202.598 Q34.03 203.073 33.5034 203.721 Q33.3587 203.889 32.5833 204.693 Q31.8078 205.492 30.3958 206.933 Z" fill="#000000" fill-rule="evenodd" fill-opacity="1" /><path clip-path="url(#clip340)" d="M 0 0 M22.1261 153.057 Q21.2234 153.057 20.7662 153.948 Q20.3148 154.833 20.3148 156.616 Q20.3148 158.392 20.7662 159.283 Q21.2234 160.169 22.1261 160.169 Q23.0347 160.169 23.4861 159.283 Q23.9433 158.392 23.9433 156.616 Q23.9433 154.833 23.4861 153.948 Q23.0347 153.057 22.1261 153.057 M22.1261 152.131 Q23.5787 152.131 24.3426 153.282 Q25.1122 154.428 25.1122 156.616 Q25.1122 158.797 24.3426 159.949 Q23.5787 161.095 22.1261 161.095 Q20.6736 161.095 19.9039 159.949 Q19.14 158.797 19.14 156.616 Q19.14 154.428 19.9039 153.282 Q20.6736 152.131 22.1261 152.131 Z" fill="#000000" fill-rule="evenodd" fill-opacity="1" /><path clip-path="url(#clip340)" d="M 0 0 M26.3796 159.457 L27.6006 159.457 L27.6006 160.927 L26.3796 160.927 L26.3796 159.457 Z" fill="#000000" fill-rule="evenodd" fill-opacity="1" /><path clip-path="url(#clip340)" d="M 0 0 M32.0798 153.305 L29.1284 157.918 L32.0798 157.918 L32.0798 153.305 M31.7731 152.287 L33.243 152.287 L33.243 157.918 L34.4756 157.918 L34.4756 158.89 L33.243 158.89 L33.243 160.927 L32.0798 160.927 L32.0798 158.89 L28.1793 158.89 L28.1793 157.761 L31.7731 152.287 Z" fill="#000000" fill-rule="evenodd" fill-opacity="1" /><path clip-path="url(#clip340)" d="M 0 0 M22.2072 106.067 Q21.3044 106.067 20.8472 106.958 Q20.3958 107.844 20.3958 109.626 Q20.3958 111.403 20.8472 112.294 Q21.3044 113.179 22.2072 113.179 Q23.1157 113.179 23.5671 112.294 Q24.0243 111.403 24.0243 109.626 Q24.0243 107.844 23.5671 106.958 Q23.1157 106.067 22.2072 106.067 M22.2072 105.141 Q23.6597 105.141 24.4236 106.293 Q25.1932 107.439 25.1932 109.626 Q25.1932 111.808 24.4236 112.959 Q23.6597 114.105 22.2072 114.105 Q20.7546 114.105 19.9849 112.959 Q19.2211 111.808 19.2211 109.626 Q19.2211 107.439 19.9849 106.293 Q20.7546 105.141 22.2072 105.141 Z" fill="#000000" fill-rule="evenodd" fill-opacity="1" /><path clip-path="url(#clip340)" d="M 0 0 M26.4606 112.468 L27.6817 112.468 L27.6817 113.937 L26.4606 113.937 L26.4606 112.468 Z" fill="#000000" fill-rule="evenodd" fill-opacity="1" /><path clip-path="url(#clip340)" d="M 0 0 M31.5937 109.152 Q30.8066 109.152 30.3437 109.69 Q29.8865 110.228 29.8865 111.165 Q29.8865 112.097 30.3437 112.641 Q30.8066 113.179 31.5937 113.179 Q32.3807 113.179 32.8379 112.641 Q33.3008 112.097 33.3008 111.165 Q33.3008 110.228 32.8379 109.69 Q32.3807 109.152 31.5937 109.152 M33.9143 105.488 L33.9143 106.553 Q33.4745 106.345 33.0231 106.235 Q32.5775 106.125 32.1377 106.125 Q30.9803 106.125 30.3668 106.906 Q29.7592 107.687 29.6724 109.267 Q30.0138 108.764 30.5289 108.498 Q31.0439 108.226 31.6631 108.226 Q32.9652 108.226 33.7175 109.019 Q34.4756 109.806 34.4756 111.165 Q34.4756 112.496 33.6886 113.301 Q32.9015 114.105 31.5937 114.105 Q30.0948 114.105 29.302 112.959 Q28.5092 111.808 28.5092 109.626 Q28.5092 107.578 29.4814 106.362 Q30.4536 105.141 32.0914 105.141 Q32.5312 105.141 32.9768 105.228 Q33.4282 105.315 33.9143 105.488 Z" fill="#000000" fill-rule="evenodd" fill-opacity="1" /><path clip-path="url(#clip340)" d="M 0 0 M22.2708 59.0776 Q21.368 59.0776 20.9109 59.9688 Q20.4595 60.8543 20.4595 62.6366 Q20.4595 64.4133 20.9109 65.3045 Q21.368 66.1899 22.2708 66.1899 Q23.1794 66.1899 23.6308 65.3045 Q24.0879 64.4133 24.0879 62.6366 Q24.0879 60.8543 23.6308 59.9688 Q23.1794 59.0776 22.2708 59.0776 M22.2708 58.1517 Q23.7233 58.1517 24.4872 59.3033 Q25.2569 60.4492 25.2569 62.6366 Q25.2569 64.8183 24.4872 65.97 Q23.7233 67.1158 22.2708 67.1158 Q20.8183 67.1158 20.0486 65.97 Q19.2847 64.8183 19.2847 62.6366 Q19.2847 60.4492 20.0486 59.3033 Q20.8183 58.1517 22.2708 58.1517 Z" fill="#000000" fill-rule="evenodd" fill-opacity="1" /><path clip-path="url(#clip340)" d="M 0 0 M26.5243 65.4781 L27.7453 65.4781 L27.7453 66.948 L26.5243 66.948 L26.5243 65.4781 Z" fill="#000000" fill-rule="evenodd" fill-opacity="1" /><path clip-path="url(#clip340)" d="M 0 0 M31.5127 62.845 Q30.6793 62.845 30.199 63.2906 Q29.7245 63.7362 29.7245 64.5174 Q29.7245 65.2987 30.199 65.7443 Q30.6793 66.1899 31.5127 66.1899 Q32.346 66.1899 32.8263 65.7443 Q33.3066 65.2929 33.3066 64.5174 Q33.3066 63.7362 32.8263 63.2906 Q32.3518 62.845 31.5127 62.845 M30.3437 62.3473 Q29.5914 62.1621 29.1689 61.6471 Q28.7523 61.132 28.7523 60.3913 Q28.7523 59.3554 29.4872 58.7536 Q30.2279 58.1517 31.5127 58.1517 Q32.8032 58.1517 33.5381 58.7536 Q34.2731 59.3554 34.2731 60.3913 Q34.2731 61.132 33.8506 61.6471 Q33.4339 62.1621 32.6874 62.3473 Q33.5323 62.5441 34.0011 63.117 Q34.4756 63.6899 34.4756 64.5174 Q34.4756 65.7732 33.7059 66.4445 Q32.942 67.1158 31.5127 67.1158 Q30.0833 67.1158 29.3136 66.4445 Q28.5497 65.7732 28.5497 64.5174 Q28.5497 63.6899 29.0242 63.117 Q29.4988 62.5441 30.3437 62.3473 M29.9154 60.5012 Q29.9154 61.1725 30.3321 61.5487 Q30.7546 61.9248 31.5127 61.9248 Q32.265 61.9248 32.6874 61.5487 Q33.1157 61.1725 33.1157 60.5012 Q33.1157 59.83 32.6874 59.4538 Q32.265 59.0776 31.5127 59.0776 Q30.7546 59.0776 30.3321 59.4538 Q29.9154 59.83 29.9154 60.5012 Z" fill="#000000" fill-rule="evenodd" fill-opacity="1" /><path clip-path="url(#clip340)" d="M 0 0 M-10.9141 161.533 L-9.34651 161.533 Q-9.78415 162.448 -9.99899 163.26 Q-10.2138 164.072 -10.2138 164.828 Q-10.2138 166.141 -9.70458 166.857 Q-9.19532 167.565 -8.25638 167.565 Q-7.46862 167.565 -7.06281 167.095 Q-6.66495 166.618 -6.41828 165.297 L-6.21935 164.326 Q-5.8772 162.528 -5.00987 161.677 Q-4.1505 160.817 -2.7023 160.817 Q-0.975602 160.817 -0.0844027 161.979 Q0.806796 163.133 0.806796 165.369 Q0.806796 166.212 0.615825 167.167 Q0.424854 168.114 0.0508686 169.132 L-1.60422 169.132 Q-1.05517 168.154 -0.776673 167.215 Q-0.498174 166.276 -0.498174 165.369 Q-0.498174 163.992 -1.03926 163.244 Q-1.58034 162.496 -2.58294 162.496 Q-3.45823 162.496 -3.95157 163.037 Q-4.44491 163.57 -4.69158 164.796 L-4.88255 165.775 Q-5.24063 167.573 -6.00451 168.377 Q-6.76839 169.18 -8.12906 169.18 Q-9.70458 169.18 -10.6117 168.074 Q-11.5188 166.96 -11.5188 165.011 Q-11.5188 164.175 -11.3676 163.308 Q-11.2164 162.441 -10.9141 161.533 Z" fill="#000000" fill-rule="evenodd" fill-opacity="1" /><path clip-path="url(#clip340)" d="M 0 0 M-3.90383 155.231 Q-3.90383 157.006 -3.49801 157.69 Q-3.0922 158.374 -2.11347 158.374 Q-1.33367 158.374 -0.872159 157.865 Q-0.418602 157.348 -0.418602 156.465 Q-0.418602 155.247 -1.27797 154.515 Q-2.1453 153.775 -3.57758 153.775 L-3.90383 153.775 L-3.90383 155.231 M-4.50857 152.311 L0.576039 152.311 L0.576039 153.775 L-0.776673 153.775 Q0.0349543 154.276 0.424854 155.024 Q0.806796 155.772 0.806796 156.855 Q0.806796 158.223 0.0429114 159.035 Q-0.72893 159.839 -2.01799 159.839 Q-3.52188 159.839 -4.28577 158.836 Q-5.04965 157.825 -5.04965 155.828 L-5.04965 153.775 L-5.19288 153.775 Q-6.20344 153.775 -6.75248 154.444 Q-7.30948 155.104 -7.30948 156.306 Q-7.30948 157.069 -7.12647 157.794 Q-6.94345 158.518 -6.57742 159.186 L-7.93014 159.186 Q-8.24046 158.382 -8.39165 157.626 Q-8.55079 156.871 -8.55079 156.154 Q-8.55079 154.221 -7.54819 153.266 Q-6.54559 152.311 -4.50857 152.311 Z" fill="#000000" fill-rule="evenodd" fill-opacity="1" /><path clip-path="url(#clip340)" d="M 0 0 M-6.62517 143.837 Q-7.61185 143.288 -8.08132 142.524 Q-8.55079 141.76 -8.55079 140.725 Q-8.55079 139.333 -7.57207 138.577 Q-6.60129 137.821 -4.80298 137.821 L0.576039 137.821 L0.576039 139.293 L-4.75524 139.293 Q-6.03634 139.293 -6.65699 139.747 Q-7.27765 140.2 -7.27765 141.131 Q-7.27765 142.269 -6.52172 142.93 Q-5.7658 143.59 -4.46083 143.59 L0.576039 143.59 L0.576039 145.062 L-4.75524 145.062 Q-6.0443 145.062 -6.65699 145.516 Q-7.27765 145.969 -7.27765 146.916 Q-7.27765 148.038 -6.51377 148.699 Q-5.75784 149.359 -4.46083 149.359 L0.576039 149.359 L0.576039 150.831 L-8.33595 150.831 L-8.33595 149.359 L-6.95141 149.359 Q-7.77099 148.858 -8.16089 148.157 Q-8.55079 147.457 -8.55079 146.494 Q-8.55079 145.524 -8.05745 144.847 Q-7.56411 144.163 -6.62517 143.837 Z" fill="#000000" fill-rule="evenodd" fill-opacity="1" /><path clip-path="url(#clip340)" d="M 0 0 M-0.760759 134.869 L3.96578 134.869 L3.96578 136.341 L-8.33595 136.341 L-8.33595 134.869 L-6.98324 134.869 Q-7.77895 134.408 -8.16089 133.707 Q-8.55079 132.999 -8.55079 132.02 Q-8.55079 130.397 -7.26174 129.387 Q-5.97268 128.368 -3.872 128.368 Q-1.77131 128.368 -0.482259 129.387 Q0.806796 130.397 0.806796 132.02 Q0.806796 132.999 0.424854 133.707 Q0.0349543 134.408 -0.760759 134.869 M-3.872 129.888 Q-5.4873 129.888 -6.40237 130.556 Q-7.32539 131.217 -7.32539 132.378 Q-7.32539 133.54 -6.40237 134.209 Q-5.4873 134.869 -3.872 134.869 Q-2.2567 134.869 -1.33367 134.209 Q-0.418602 133.54 -0.418602 132.378 Q-0.418602 131.217 -1.33367 130.556 Q-2.2567 129.888 -3.872 129.888 Z" fill="#000000" fill-rule="evenodd" fill-opacity="1" /><path clip-path="url(#clip340)" d="M 0 0 M-11.8053 126.832 L-11.8053 125.368 L0.576039 125.368 L0.576039 126.832 L-11.8053 126.832 Z" fill="#000000" fill-rule="evenodd" fill-opacity="1" /><path clip-path="url(#clip340)" d="M 0 0 M-4.24598 116.21 L-3.52984 116.21 L-3.52984 122.941 Q-2.01799 122.846 -1.22227 122.034 Q-0.434517 121.215 -0.434517 119.758 Q-0.434517 118.915 -0.641402 118.127 Q-0.848287 117.332 -1.26206 116.552 L0.122483 116.552 Q0.456682 117.339 0.631739 118.167 Q0.806796 118.995 0.806796 119.846 Q0.806796 121.978 -0.434517 123.228 Q-1.67583 124.469 -3.79243 124.469 Q-5.98064 124.469 -7.26174 123.291 Q-8.55079 122.106 -8.55079 120.101 Q-8.55079 118.302 -7.38905 117.26 Q-6.23527 116.21 -4.24598 116.21 M-4.67567 117.674 Q-5.8772 117.69 -6.59334 118.35 Q-7.30948 119.003 -7.30948 120.085 Q-7.30948 121.31 -6.61721 122.05 Q-5.92494 122.782 -4.66771 122.894 L-4.67567 117.674 Z" fill="#000000" fill-rule="evenodd" fill-opacity="1" /><path clip-path="url(#clip340)" d="M 0 0 M-8.33595 110.544 L-8.33595 108.992 L-0.856245 106.207 L-8.33595 103.422 L-8.33595 101.871 L0.576039 105.213 L0.576039 107.202 L-8.33595 110.544 Z" fill="#000000" fill-rule="evenodd" fill-opacity="1" /><path clip-path="url(#clip340)" d="M 0 0 M-3.90383 96.2849 Q-3.90383 98.0593 -3.49801 98.7437 Q-3.0922 99.428 -2.11347 99.428 Q-1.33367 99.428 -0.872159 98.9187 Q-0.418602 98.4015 -0.418602 97.5183 Q-0.418602 96.3008 -1.27797 95.5688 Q-2.1453 94.8287 -3.57758 94.8287 L-3.90383 94.8287 L-3.90383 96.2849 M-4.50857 93.3646 L0.576039 93.3646 L0.576039 94.8287 L-0.776673 94.8287 Q0.0349543 95.33 0.424854 96.078 Q0.806796 96.826 0.806796 97.9082 Q0.806796 99.2768 0.0429114 100.088 Q-0.72893 100.892 -2.01799 100.892 Q-3.52188 100.892 -4.28577 99.8895 Q-5.04965 98.8789 -5.04965 96.8817 L-5.04965 94.8287 L-5.19288 94.8287 Q-6.20344 94.8287 -6.75248 95.4971 Q-7.30948 96.1576 -7.30948 97.3591 Q-7.30948 98.123 -7.12647 98.8471 Q-6.94345 99.5712 -6.57742 100.24 L-7.93014 100.24 Q-8.24046 99.4359 -8.39165 98.68 Q-8.55079 97.9241 -8.55079 97.2079 Q-8.55079 95.2743 -7.54819 94.3195 Q-6.54559 93.3646 -4.50857 93.3646 Z" fill="#000000" fill-rule="evenodd" fill-opacity="1" /><path clip-path="url(#clip340)" d="M 0 0 M-11.8053 91.8289 L-11.8053 90.3648 L0.576039 90.3648 L0.576039 91.8289 L-11.8053 91.8289 Z" fill="#000000" fill-rule="evenodd" fill-opacity="1" /><path clip-path="url(#clip340)" d="M 0 0 M-2.94101 88.9802 L-8.33595 88.9802 L-8.33595 87.5161 L-2.99671 87.5161 Q-1.73153 87.5161 -1.09496 87.0228 Q-0.466345 86.5295 -0.466345 85.5428 Q-0.466345 84.3572 -1.22227 83.6728 Q-1.9782 82.9806 -3.28317 82.9806 L-8.33595 82.9806 L-8.33595 81.5165 L0.576039 81.5165 L0.576039 82.9806 L-0.792588 82.9806 Q0.01904 83.5137 0.416897 84.2219 Q0.806796 84.9221 0.806796 85.8531 Q0.806796 87.3888 -0.14806 88.1845 Q-1.10292 88.9802 -2.94101 88.9802 M-8.55079 85.2961 L-8.55079 85.2961 Z" fill="#000000" fill-rule="evenodd" fill-opacity="1" /><path clip-path="url(#clip340)" d="M 0 0 M-4.24598 72.3578 L-3.52984 72.3578 L-3.52984 79.0895 Q-2.01799 78.994 -1.22227 78.1824 Q-0.434517 77.3628 -0.434517 75.9067 Q-0.434517 75.0632 -0.641402 74.2755 Q-0.848287 73.4798 -1.26206 72.7 L0.122483 72.7 Q0.456682 73.4877 0.631739 74.3153 Q0.806796 75.1428 0.806796 75.9942 Q0.806796 78.1267 -0.434517 79.376 Q-1.67583 80.6173 -3.79243 80.6173 Q-5.98064 80.6173 -7.26174 79.4396 Q-8.55079 78.254 -8.55079 76.2488 Q-8.55079 74.4505 -7.38905 73.4081 Q-6.23527 72.3578 -4.24598 72.3578 M-4.67567 73.8219 Q-5.8772 73.8378 -6.59334 74.4983 Q-7.30948 75.1508 -7.30948 76.2329 Q-7.30948 77.4583 -6.61721 78.1983 Q-5.92494 78.9304 -4.66771 79.0418 L-4.67567 73.8219 Z" fill="#000000" fill-rule="evenodd" fill-opacity="1" /><path clip-path="url(#clip340)" d="M 0 0 M272.083 10.9536 L265.632 10.9536 Q265.784 13.9817 266.483 15.2679 Q267.354 16.8477 268.863 16.8477 Q270.382 16.8477 271.222 15.2577 Q271.962 13.8602 272.083 10.9536 M272.053 9.23201 Q271.769 6.35587 271.222 5.34314 Q270.351 3.74304 268.863 3.74304 Q267.313 3.74304 266.493 5.32289 Q265.845 6.59892 265.652 9.23201 L272.053 9.23201 M268.863 2.22395 Q271.293 2.22395 272.681 4.37093 Q274.068 6.50778 274.068 10.2954 Q274.068 14.0728 272.681 16.2198 Q271.293 18.3769 268.863 18.3769 Q266.422 18.3769 265.045 16.2198 Q263.657 14.0728 263.657 10.2954 Q263.657 6.50778 265.045 4.37093 Q266.422 2.22395 268.863 2.22395 Z" fill="#000000" fill-rule="evenodd" fill-opacity="1" /><polyline clip-path="url(#clip342)" style="stroke:#009af9; stroke-width:1; stroke-opacity:1; fill:none" points="
  61.8937,120.543 62.3081,129.767 62.7224,116.922 63.1368,123.142 63.5512,80.7883 63.9655,124.013 64.3799,76.2415 64.7942,66.0802 65.2086,76.3505 65.6229,70.3682 
  66.0373,57.6921 66.4516,57.6921 66.866,99.3929 67.2803,151.013 67.6947,116.492 68.109,136.802 68.5234,177.363 68.9377,131.959 69.3521,74.3293 69.7664,74.3293 
  70.1808,68.189 70.5951,68.5743 71.0095,69.2318 71.4238,69.2318 71.8382,139.278 72.2525,119.67 72.6669,83.3233 73.0813,83.3233 73.4956,63.8291 73.91,70.8407 
  74.3243,136.773 74.7387,120.189 75.153,120.189 75.5674,140.539 75.9817,115.105 76.3961,139.318 76.8104,69.0469 77.2248,70.391 77.6391,68.0653 78.0535,47.0009 
  78.4678,78.297 78.8822,126.724 79.2965,167.223 79.7109,55.6103 80.1252,75.4073 80.5396,97.9343 80.9539,61.4153 81.3683,49.7761 81.7826,203.55 82.197,80.9377 
  82.6114,83.22 83.0257,68.3176 83.4401,146.527 83.8544,130.591 84.2688,135.3 84.6831,156.155 85.0975,47.0798 85.5118,76.3727 85.9262,88.0204 86.3405,100.755 
  86.7549,101.169 87.1692,101.169 87.5836,101.169 87.9979,126.36 88.4123,107.082 88.8266,135.245 89.241,67.9489 89.6553,129.029 90.0697,125.903 90.484,104.804 
  90.8984,97.5245 91.3127,151.361 91.7271,73.4679 92.1415,118.942 92.5558,78.6018 92.9702,125.044 93.3845,115.64 93.7989,124.169 94.2132,110.952 94.6276,112.053 
  95.0419,111.682 95.4563,88.9288 95.8706,91.0065 96.285,103.356 96.6993,74.1645 97.1137,86.8004 97.528,115.789 97.9424,135.581 98.3567,101.055 98.7711,101.055 
  99.1854,105.979 99.5998,155.351 100.014,142.898 100.428,109.127 100.843,109.127 101.257,92.9756 101.672,77.2809 102.086,99.432 102.5,99.432 102.915,97.0602 
  103.329,97.0602 103.743,99.3588 104.158,47.5197 104.572,40.5803 104.986,73.4494 105.401,65.0318 105.815,143.082 106.229,41.9206 106.644,82.6219 107.058,48.7999 
  107.472,72.9999 107.887,87.5667 108.301,87.5667 108.716,93.9381 109.13,101.209 109.544,123.954 109.959,141.859 110.373,124.669 110.787,104.092 111.202,104.092 
  111.616,101.794 112.03,101.794 112.445,141.294 112.859,141.294 113.273,117.392 113.688,117.291 114.102,113.358 114.516,112.119 114.931,166.835 115.345,105.043 
  115.76,108.241 116.174,135.282 116.588,124.638 117.003,126.524 117.417,144.454 117.831,107.241 118.246,95.4028 118.66,95.1469 119.074,86.2152 119.489,86.2152 
  119.903,98.934 120.317,101.403 120.732,101.892 121.146,101.413 121.56,44.7315 121.975,150.665 122.389,107.966 122.804,134.305 123.218,120.82 123.632,102.801 
  124.047,99.0459 124.461,72.2565 124.875,66.5952 125.29,37.999 125.704,68.0311 126.118,87.399 126.533,80.8142 126.947,95.4836 127.361,82.9496 127.776,92.3185 
  128.19,108.39 128.604,92.5475 129.019,92.5475 129.433,108.058 129.848,108.058 130.262,131.84 130.676,73.253 131.091,81.2357 131.505,76.9134 131.919,75.4666 
  132.334,59.2727 132.748,46.8133 133.162,64.6763 133.577,36.0207 133.991,46.1174 134.405,46.1174 134.82,125.99 135.234,78.1278 135.648,78.1278 136.063,125.014 
  136.477,140.189 136.891,68.3067 137.306,83.4058 137.72,120.566 138.135,147.376 138.549,105.329 138.963,102.998 139.378,97.4859 139.792,104.063 140.206,104.063 
  140.621,93.3651 141.035,74.2944 141.449,126.733 141.864,113.526 142.278,181.226 142.692,179.366 143.107,191.413 143.521,75.0161 143.935,91.3428 144.35,96.4177 
  144.764,80.3688 145.179,48.102 145.593,171.503 146.007,46.3449 146.422,60.2401 146.836,60.2401 147.25,117.201 147.665,133.29 148.079,72.5759 148.493,79.8762 
  148.908,84.8016 149.322,84.8016 149.736,64.9299 150.151,72.7573 150.565,132.445 150.979,127.8 151.394,127.8 151.808,75.9739 152.223,96.0076 152.637,71.4623 
  153.051,116.427 153.466,116.427 153.88,116.427 154.294,146.157 154.709,146.157 155.123,108.529 155.537,139.182 155.952,68.7361 156.366,71.8173 156.78,110.163 
  157.195,95.818 157.609,100.089 158.023,86.3287 158.438,68.2832 158.852,77.7779 159.267,76.5352 159.681,127.707 160.095,103.852 160.51,103.852 160.924,94.322 
  161.338,91.4417 161.753,89.4941 162.167,87.8279 162.581,85.4734 162.996,119.488 163.41,82.628 163.824,83.6822 164.239,118.417 164.653,109.384 165.067,111.368 
  165.482,115.582 165.896,126.108 166.31,78.367 166.725,95.0223 167.139,95.7567 167.554,95.7567 167.968,96.1374 168.382,166.505 168.797,109.352 169.211,112.294 
  169.625,112.294 170.04,153.025 170.454,138.379 170.868,96.0466 171.283,59.2962 171.697,86.6226 172.111,76.3649 172.526,69.3889 172.94,31.4506 173.354,37.2978 
  173.769,181.393 174.183,81.3312 174.598,74.7528 175.012,83.2237 175.426,97.2258 175.841,93.6193 176.255,71.1752 176.669,89.1838 177.084,88.6001 177.498,97.7176 
  177.912,104.78 178.327,104.78 178.741,104.78 179.155,105.065 179.57,144.217 179.984,62.3794 180.398,62.3794 180.813,86.8032 181.227,97.0474 181.642,66.8632 
  182.056,142.512 182.47,115.871 182.885,86.5471 183.299,101.847 183.713,80.76 184.128,92.6575 184.542,75.0678 184.956,90.5675 185.371,94.7252 185.785,96.0266 
  186.199,84.2054 186.614,72.4965 187.028,134.693 187.442,171.865 187.857,48.9387 188.271,116.582 188.686,132.258 189.1,73.4452 189.514,47.0346 189.929,59.815 
  190.343,93.3675 190.757,185.926 191.172,76.0155 191.586,54.7582 192,124.222 192.415,132.253 192.829,132.296 193.243,138.446 193.658,136.339 194.072,143.566 
  194.486,111.166 194.901,108.962 195.315,106.601 195.73,118.472 196.144,118.472 196.558,150.928 196.973,155.006 197.387,92.8715 197.801,45.0123 198.216,64.4365 
  198.63,41.9555 199.044,41.9555 199.459,64.8846 199.873,64.8846 200.287,49.102 200.702,74.6413 201.116,72.9857 201.53,132.929 201.945,118.402 202.359,74.0764 
  202.773,50.3669 203.188,64.0419 203.602,145.348 204.017,116.93 204.431,116.93 204.845,86.5201 205.26,79.5699 205.674,76.4187 206.088,87.6417 206.503,80.7038 
  206.917,80.2831 207.331,124.576 207.746,80.1864 208.16,89.4711 208.574,89.4711 208.989,99.7399 209.403,140.81 209.817,68.1791 210.232,60.1806 210.646,58.1805 
  211.061,81.623 211.475,55.71 211.889,55.71 212.304,159.803 212.718,98.6461 213.132,63.5145 213.547,42.043 213.961,77.0588 214.375,77.0588 214.79,145.576 
  215.204,169.771 215.618,112.191 216.033,112.191 216.447,46.7243 216.861,110.231 217.276,167.095 217.69,113.348 218.105,141.993 218.519,66.261 218.933,96.8948 
  219.348,137.755 219.762,114.174 220.176,101.354 220.591,166.678 221.005,125.24 221.419,127.999 221.834,134.288 222.248,118.86 222.662,104.829 223.077,107.938 
  223.491,149.239 223.905,102.033 224.32,120.806 224.734,81.4877 225.149,81.4877 225.563,78.4556 225.977,92.9613 226.392,109.827 226.806,117.693 227.22,85.9987 
  227.635,85.9987 228.049,116.041 228.463,150.918 228.878,139.118 229.292,159.621 229.706,161.833 230.121,134.314 230.535,214.496 230.949,94.7913 231.364,94.848 
  231.778,66.9002 232.193,80.0745 232.607,117.032 233.021,49.9019 233.436,56.9033 233.85,158.13 234.264,172.834 234.679,166.132 235.093,94.4749 235.507,72.8754 
  235.922,85.944 236.336,58.5761 236.75,69.1113 237.165,138.511 237.579,109.649 237.993,148.995 238.408,95.4112 238.822,59.8981 239.236,71.9826 239.651,74.5824 
  240.065,47.1561 240.48,125.945 240.894,113.308 241.308,84.0057 241.723,97.8501 242.137,95.0432 242.551,157.771 242.966,56.6095 243.38,50.4045 243.794,71.2563 
  244.209,91.5978 244.623,57.5995 245.037,69.386 245.452,55.3771 245.866,56.9968 246.28,48.4095 246.695,90.997 247.109,103.38 247.524,114.461 247.938,116.327 
  248.352,115.29 248.767,108.716 249.181,139.148 249.595,164.104 250.01,97.9706 250.424,97.9706 250.838,78.1731 251.253,55.0224 251.667,52.221 252.081,34.5109 
  252.496,47.7204 252.91,154.403 253.324,103.91 253.739,96.7202 254.153,63.1857 254.568,94.3167 254.982,74.7624 255.396,94.2834 255.811,89.9645 256.225,157.638 
  256.639,105.195 257.054,105.195 257.468,132.271 257.882,73.7448 258.297,79.2238 258.711,94.2257 259.125,92.6216 259.54,85.0111 259.954,102.569 260.368,121.02 
  260.783,111.711 261.197,111.711 261.612,111.711 262.026,90.6434 262.44,106.653 262.855,124.658 263.269,79.6106 263.683,85.3437 264.098,85.5104 264.512,116.308 
  264.926,86.7763 265.341,86.7763 265.755,62.5133 266.169,84.824 266.584,105.095 266.998,104.691 267.412,104.691 267.827,139.721 268.241,125.242 268.655,80.9847 
  269.07,121.438 269.484,81.1164 269.899,81.1164 270.313,81.1164 270.727,80.2324 271.142,124.654 271.556,80.2655 271.97,87.5149 272.385,98.2216 272.799,87.5019 
  273.213,48.0608 273.628,50.2669 274.042,55.5259 274.456,142.173 274.871,117.964 275.285,113.567 275.699,87.5875 276.114,115.61 276.528,157.513 276.943,97.4731 
  277.357,102.902 277.771,109.169 278.186,201.832 278.6,201.832 279.014,66.8339 279.429,48.9901 279.843,67.1287 280.257,83.9087 280.672,58.8044 281.086,50.3776 
  281.5,108.149 281.915,184.318 282.329,128.679 282.743,106.314 283.158,92.8165 283.572,92.8165 283.987,99.3002 284.401,83.8057 284.815,83.8057 285.23,119.632 
  285.644,103.607 286.058,102.445 286.473,105.163 286.887,126.991 287.301,126.991 287.716,108.458 288.13,87.7041 288.544,79.9922 288.959,123.053 289.373,142.403 
  289.787,142.403 290.202,176.599 290.616,136.903 291.031,166.362 291.445,52.0805 291.859,62.9301 292.274,112.241 292.688,149.849 293.102,98.9033 293.517,151.208 
  293.931,61.1213 294.345,49.5671 294.76,70.313 295.174,92.0107 295.588,62.5864 296.003,69.4698 296.417,66.3824 296.831,141.94 297.246,119.36 297.66,112.318 
  298.075,115.469 298.489,113.91 298.903,136.987 299.318,122.791 299.732,118.337 300.146,127.163 300.561,117.052 300.975,84.6048 301.389,97.903 301.804,39.2734 
  302.218,73.9642 302.632,64.2069 303.047,49.7226 303.461,49.7226 303.875,86.0746 304.29,79.3175 304.704,179.504 305.118,128.503 305.533,100.169 305.947,118.446 
  306.362,102.434 306.776,97.2904 307.19,79.4522 307.605,99.4919 308.019,124.397 308.433,124.397 308.848,124.397 309.262,66.6196 309.676,43.2533 310.091,59.7799 
  310.505,73.8633 310.919,77.9902 311.334,93.3238 311.748,83.4 312.162,62.683 312.577,73.9066 312.991,129.859 313.406,27.0417 313.82,43.9937 314.234,62.3265 
  314.649,81.4055 315.063,83.8321 315.477,51.3991 315.892,52.7833 316.306,85.208 316.72,183.355 317.135,111.518 317.549,111.446 317.963,147.558 318.378,152.535 
  318.792,49.5501 319.206,55.5291 319.621,100.195 320.035,100.195 320.45,77.6789 320.864,72.8924 321.278,72.8924 321.693,118.361 322.107,80.5293 322.521,81.0415 
  322.936,119.16 323.35,126.114 323.764,105.867 324.179,94.9315 324.593,94.9315 325.007,107.288 325.422,150.015 325.836,134.576 326.25,70.9994 326.665,136.58 
  327.079,70.1296 327.494,58.6039 327.908,43.3743 328.322,57.0792 328.737,90.0605 329.151,34.4879 329.565,122.751 329.98,141.862 330.394,147.2 330.808,102.065 
  331.223,102.065 331.637,98.2674 332.051,107.346 332.466,111.895 332.88,111.895 333.294,181.56 333.709,102.813 334.123,114.617 334.537,113.667 334.952,113.667 
  335.366,113.667 335.781,78.0016 336.195,78.0016 336.609,71.4728 337.024,95.3266 337.438,69.6987 337.852,69.3341 338.267,48.5725 338.681,164.141 339.095,133.66 
  339.51,122.197 339.924,126.98 340.338,59.1267 340.753,142.507 341.167,110.515 341.581,124.355 341.996,79.835 342.41,67.6488 342.825,139.587 343.239,124.62 
  343.653,78.9793 344.068,85.2969 344.482,90.5418 344.896,87.6081 345.311,71.1984 345.725,70.6388 346.139,130.255 346.554,74.1377 346.968,77.4066 347.382,126.966 
  347.797,121.64 348.211,113.093 348.625,126.158 349.04,139.898 349.454,68.3627 349.869,66.8172 350.283,67.7585 350.697,67.7585 351.112,141.433 351.526,130.903 
  351.94,74.6466 352.355,130.932 352.769,108.74 353.183,103.169 353.598,103.005 354.012,173.878 354.426,115.348 354.841,87.6292 355.255,83.6933 355.669,77.2191 
  356.084,85.2226 356.498,85.2226 356.913,71.6066 357.327,51.1241 357.741,85.2232 358.156,88.0556 358.57,115.251 358.984,87.9876 359.399,65.7347 359.813,137.627 
  360.227,125.105 360.642,98.9 361.056,103.327 361.47,116.36 361.885,142.456 362.299,142.456 362.713,61.5898 363.128,68.9672 363.542,132.386 363.957,72.5368 
  364.371,98.0006 364.785,89.3396 365.2,87.1104 365.614,66.3199 366.028,89.1033 366.443,85.632 366.857,93.757 367.271,86.2596 367.686,69.9237 368.1,73.0591 
  368.514,133.21 368.929,133.21 369.343,102.663 369.757,105.408 370.172,116.287 370.586,86.214 371,100.1 371.415,100.1 371.829,93.735 372.244,93.735 
  372.658,99.4641 373.072,101.369 373.487,110.834 373.901,115.521 374.315,138.845 374.73,135.604 375.144,72.981 375.558,81.9786 375.973,65.9695 376.387,71.6182 
  376.801,47.6351 377.216,91.5343 377.63,101.232 378.044,126.776 378.459,102.441 378.873,112.391 379.288,118.66 379.702,150.314 380.116,61.0161 380.531,48.6949 
  380.945,140.82 381.359,98.2976 381.774,81.7087 382.188,121.123 382.602,117.947 383.017,117.939 383.431,117.939 383.845,129.857 384.26,67.0233 384.674,91.161 
  385.088,110.062 385.503,39.2518 385.917,39.9314 386.332,51.2563 386.746,79.8715 387.16,79.8715 387.575,95.9617 387.989,83.7906 388.403,78.5938 388.818,92.9166 
  389.232,87.4336 389.646,56.4927 390.061,56.4927 390.475,124.13 390.889,133.922 391.304,120.502 391.718,118.339 392.132,91.102 392.547,79.0486 392.961,85.652 
  393.376,85.652 393.79,81.0887 394.204,91.5114 394.619,86.2501 395.033,95.9554 395.447,138.423 395.862,114.37 396.276,139.243 396.69,139.243 397.105,55.8794 
  397.519,67.2953 397.933,94.5613 398.348,94.5613 398.762,100.7 399.176,150.658 399.591,97.0641 400.005,37.4396 400.42,40.2939 400.834,83.2745 401.248,118.22 
  401.663,122.116 402.077,80.6828 402.491,85.5399 402.906,119.173 403.32,81.5804 403.734,72.6128 404.149,134.584 404.563,132.827 404.977,162.013 405.392,158.395 
  405.806,135.369 406.22,71.5384 406.635,81.5961 407.049,52.8774 407.463,69.2321 407.878,79.0322 408.292,99.474 408.707,67.595 409.121,59.1333 409.535,66.9519 
  409.95,64.7991 410.364,77.444 410.778,85.9534 411.193,187.537 411.607,196.478 412.021,203.3 412.436,147.003 412.85,127.63 413.264,137.05 413.679,116.384 
  414.093,104.72 414.507,132.258 414.922,134.224 415.336,112.77 415.751,40.791 416.165,99.4972 416.579,102.801 416.994,102.801 417.408,127.571 417.822,144.152 
  418.237,123.646 418.651,136.535 419.065,96.4051 419.48,94.5223 419.894,100.19 420.308,94.5825 420.723,67.5485 421.137,36.3446 421.551,37.1446 421.966,37.62 
  422.38,37.62 422.795,92.9069 423.209,163.385 423.623,163.385 424.038,119.079 424.452,84.741 424.866,84.741 425.281,75.6512 425.695,77.8226 426.109,83.5548 
  426.524,37.2103 426.938,56.4289 427.352,57.3996 427.767,42.1627 428.181,69.9696 428.595,69.9696 429.01,137.693 429.424,67.5478 429.839,86.7669 430.253,86.7669 
  430.667,51.7329 431.082,28.3917 431.496,179.45 431.91,122.893 432.325,149.206 432.739,106.743 433.153,194.605 433.568,205.706 433.982,172.577 434.396,149.121 
  434.811,129.353 435.225,75.2536 435.639,85.0202 436.054,72.2939 436.468,105.806 436.882,131.425 437.297,73.3647 437.711,43.7539 438.126,181.826 438.54,75.4965 
  438.954,67.421 439.369,59.0561 439.783,36.4591 440.197,45.5964 440.612,83.9167 441.026,83.9167 441.44,96.7967 441.855,96.7967 442.269,96.7967 442.683,104.226 
  443.098,112.599 443.512,138.74 443.926,176.059 444.341,46.7468 444.755,66.7477 445.17,66.8172 445.584,72.2209 445.998,72.2209 446.413,89.3564 446.827,113.663 
  447.241,42.9762 447.656,77.201 448.07,127.78 448.484,141.461 448.899,105.258 449.313,69.9704 449.727,38.9221 450.142,57.9048 450.556,80.6737 450.97,80.6737 
  451.385,94.83 451.799,78.1007 452.214,80.9332 452.628,63.9617 453.042,82.6557 453.457,88.9711 453.871,88.9711 454.285,77.8131 454.7,82.8735 455.114,120.443 
  455.528,120.443 455.943,141.357 456.357,112.017 456.771,116.62 457.186,86.0416 457.6,69.4426 458.014,50.0882 458.429,65.5868 458.843,71.6146 459.258,71.6146 
  459.672,58.0648 460.086,54.8728 460.501,38.1786 460.915,82.1117 461.329,47.0362 461.744,62.5844 462.158,88.2889 462.572,88.2889 462.987,67.7328 463.401,123.666 
  463.815,115.298 464.23,88.0937 464.644,85.3763 465.058,93.442 465.473,112.95 465.887,147.35 466.302,116.187 466.716,86.8569 467.13,70.4845 467.545,67.6988 
  467.959,141.501 468.373,133.712 468.788,133.909 469.202,125.931 469.616,122.258 470.031,113.798 470.445,89.2969 470.859,210.736 471.274,131.782 471.688,110.53 
  472.102,105.13 472.517,108.344 472.931,94.3802 473.345,94.3802 473.76,83.3039 474.174,120.173 474.589,122.137 475.003,108.904 475.417,109.763 475.832,124.715 
  
  "/>
<path clip-path="url(#clip340)" d="
M549.415 220.12 L988.189 220.12 L988.189 21.418 L549.415 21.418  Z
  " fill="#ffffff" fill-rule="evenodd" fill-opacity="1"/>
<defs>
  <clipPath id="clip343">
    <rect x="549" y="21" width="440" height="200"/>
  </clipPath>
</defs>
<polyline clip-path="url(#clip343)" style="stroke:#000000; stroke-width:0.5; stroke-opacity:0.1; fill:none" points="
  583.558,220.12 583.558,21.418 
  "/>
<polyline clip-path="url(#clip343)" style="stroke:#000000; stroke-width:0.5; stroke-opacity:0.1; fill:none" points="
  688.65,220.12 688.65,21.418 
  "/>
<polyline clip-path="url(#clip343)" style="stroke:#000000; stroke-width:0.5; stroke-opacity:0.1; fill:none" points="
  793.742,220.12 793.742,21.418 
  "/>
<polyline clip-path="url(#clip343)" style="stroke:#000000; stroke-width:0.5; stroke-opacity:0.1; fill:none" points="
  898.835,220.12 898.835,21.418 
  "/>
<polyline clip-path="url(#clip340)" style="stroke:#000000; stroke-width:1; stroke-opacity:1; fill:none" points="
  549.415,220.12 988.189,220.12 
  "/>
<polyline clip-path="url(#clip340)" style="stroke:#000000; stroke-width:1; stroke-opacity:1; fill:none" points="
  583.558,220.12 583.558,217.736 
  "/>
<polyline clip-path="url(#clip340)" style="stroke:#000000; stroke-width:1; stroke-opacity:1; fill:none" points="
  688.65,220.12 688.65,217.736 
  "/>
<polyline clip-path="url(#clip340)" style="stroke:#000000; stroke-width:1; stroke-opacity:1; fill:none" points="
  793.742,220.12 793.742,217.736 
  "/>
<polyline clip-path="url(#clip340)" style="stroke:#000000; stroke-width:1; stroke-opacity:1; fill:none" points="
  898.835,220.12 898.835,217.736 
  "/>
<path clip-path="url(#clip340)" d="M 0 0 M579.137 230.618 Q578.234 230.618 577.777 231.509 Q577.325 232.394 577.325 234.177 Q577.325 235.953 577.777 236.844 Q578.234 237.73 579.137 237.73 Q580.045 237.73 580.497 236.844 Q580.954 235.953 580.954 234.177 Q580.954 232.394 580.497 231.509 Q580.045 230.618 579.137 230.618 M579.137 229.692 Q580.589 229.692 581.353 230.843 Q582.123 231.989 582.123 234.177 Q582.123 236.358 581.353 237.51 Q580.589 238.656 579.137 238.656 Q577.684 238.656 576.915 237.51 Q576.151 236.358 576.151 234.177 Q576.151 231.989 576.915 230.843 Q577.684 229.692 579.137 229.692 Z" fill="#000000" fill-rule="evenodd" fill-opacity="1" /><path clip-path="url(#clip340)" d="M 0 0 M583.39 237.018 L584.611 237.018 L584.611 238.488 L583.39 238.488 L583.39 237.018 Z" fill="#000000" fill-rule="evenodd" fill-opacity="1" /><path clip-path="url(#clip340)" d="M 0 0 M586.886 237.504 L590.965 237.504 L590.965 238.488 L585.479 238.488 L585.479 237.504 Q586.145 236.816 587.291 235.658 Q588.442 234.495 588.737 234.159 Q589.299 233.528 589.519 233.094 Q589.744 232.655 589.744 232.232 Q589.744 231.544 589.258 231.11 Q588.778 230.676 588.002 230.676 Q587.453 230.676 586.839 230.866 Q586.232 231.057 585.537 231.445 L585.537 230.265 Q586.243 229.981 586.857 229.836 Q587.47 229.692 587.979 229.692 Q589.322 229.692 590.12 230.363 Q590.919 231.034 590.919 232.157 Q590.919 232.689 590.717 233.17 Q590.52 233.644 589.993 234.292 Q589.849 234.46 589.073 235.265 Q588.298 236.063 586.886 237.504 Z" fill="#000000" fill-rule="evenodd" fill-opacity="1" /><path clip-path="url(#clip340)" d="M 0 0 M683.969 230.618 Q683.066 230.618 682.609 231.509 Q682.157 232.394 682.157 234.177 Q682.157 235.953 682.609 236.844 Q683.066 237.73 683.969 237.73 Q684.877 237.73 685.328 236.844 Q685.786 235.953 685.786 234.177 Q685.786 232.394 685.328 231.509 Q684.877 230.618 683.969 230.618 M683.969 229.692 Q685.421 229.692 686.185 230.843 Q686.955 231.989 686.955 234.177 Q686.955 236.358 686.185 237.51 Q685.421 238.656 683.969 238.656 Q682.516 238.656 681.746 237.51 Q680.982 236.358 680.982 234.177 Q680.982 231.989 681.746 230.843 Q682.516 229.692 683.969 229.692 Z" fill="#000000" fill-rule="evenodd" fill-opacity="1" /><path clip-path="url(#clip340)" d="M 0 0 M688.222 237.018 L689.443 237.018 L689.443 238.488 L688.222 238.488 L688.222 237.018 Z" fill="#000000" fill-rule="evenodd" fill-opacity="1" /><path clip-path="url(#clip340)" d="M 0 0 M693.922 230.866 L690.971 235.479 L693.922 235.479 L693.922 230.866 M693.615 229.848 L695.085 229.848 L695.085 235.479 L696.318 235.479 L696.318 236.451 L695.085 236.451 L695.085 238.488 L693.922 238.488 L693.922 236.451 L690.022 236.451 L690.022 235.322 L693.615 229.848 Z" fill="#000000" fill-rule="evenodd" fill-opacity="1" /><path clip-path="url(#clip340)" d="M 0 0 M789.101 230.618 Q788.198 230.618 787.741 231.509 Q787.29 232.394 787.29 234.177 Q787.29 235.953 787.741 236.844 Q788.198 237.73 789.101 237.73 Q790.01 237.73 790.461 236.844 Q790.918 235.953 790.918 234.177 Q790.918 232.394 790.461 231.509 Q790.01 230.618 789.101 230.618 M789.101 229.692 Q790.554 229.692 791.318 230.843 Q792.087 231.989 792.087 234.177 Q792.087 236.358 791.318 237.51 Q790.554 238.656 789.101 238.656 Q787.649 238.656 786.879 237.51 Q786.115 236.358 786.115 234.177 Q786.115 231.989 786.879 230.843 Q787.649 229.692 789.101 229.692 Z" fill="#000000" fill-rule="evenodd" fill-opacity="1" /><path clip-path="url(#clip340)" d="M 0 0 M793.355 237.018 L794.576 237.018 L794.576 238.488 L793.355 238.488 L793.355 237.018 Z" fill="#000000" fill-rule="evenodd" fill-opacity="1" /><path clip-path="url(#clip340)" d="M 0 0 M798.488 233.702 Q797.701 233.702 797.238 234.24 Q796.781 234.778 796.781 235.716 Q796.781 236.648 797.238 237.192 Q797.701 237.73 798.488 237.73 Q799.275 237.73 799.732 237.192 Q800.195 236.648 800.195 235.716 Q800.195 234.778 799.732 234.24 Q799.275 233.702 798.488 233.702 M800.808 230.039 L800.808 231.104 Q800.368 230.895 799.917 230.785 Q799.472 230.676 799.032 230.676 Q797.874 230.676 797.261 231.457 Q796.653 232.238 796.566 233.818 Q796.908 233.314 797.423 233.048 Q797.938 232.776 798.557 232.776 Q799.859 232.776 800.612 233.569 Q801.37 234.356 801.37 235.716 Q801.37 237.047 800.583 237.851 Q799.796 238.656 798.488 238.656 Q796.989 238.656 796.196 237.51 Q795.403 236.358 795.403 234.177 Q795.403 232.128 796.375 230.913 Q797.348 229.692 798.985 229.692 Q799.425 229.692 799.871 229.779 Q800.322 229.865 800.808 230.039 Z" fill="#000000" fill-rule="evenodd" fill-opacity="1" /><path clip-path="url(#clip340)" d="M 0 0 M894.225 230.618 Q893.322 230.618 892.865 231.509 Q892.414 232.394 892.414 234.177 Q892.414 235.953 892.865 236.844 Q893.322 237.73 894.225 237.73 Q895.134 237.73 895.585 236.844 Q896.042 235.953 896.042 234.177 Q896.042 232.394 895.585 231.509 Q895.134 230.618 894.225 230.618 M894.225 229.692 Q895.678 229.692 896.442 230.843 Q897.211 231.989 897.211 234.177 Q897.211 236.358 896.442 237.51 Q895.678 238.656 894.225 238.656 Q892.773 238.656 892.003 237.51 Q891.239 236.358 891.239 234.177 Q891.239 231.989 892.003 230.843 Q892.773 229.692 894.225 229.692 Z" fill="#000000" fill-rule="evenodd" fill-opacity="1" /><path clip-path="url(#clip340)" d="M 0 0 M898.479 237.018 L899.7 237.018 L899.7 238.488 L898.479 238.488 L898.479 237.018 Z" fill="#000000" fill-rule="evenodd" fill-opacity="1" /><path clip-path="url(#clip340)" d="M 0 0 M903.467 234.385 Q902.634 234.385 902.153 234.831 Q901.679 235.276 901.679 236.057 Q901.679 236.839 902.153 237.284 Q902.634 237.73 903.467 237.73 Q904.3 237.73 904.781 237.284 Q905.261 236.833 905.261 236.057 Q905.261 235.276 904.781 234.831 Q904.306 234.385 903.467 234.385 M902.298 233.887 Q901.546 233.702 901.123 233.187 Q900.707 232.672 900.707 231.931 Q900.707 230.895 901.442 230.294 Q902.182 229.692 903.467 229.692 Q904.758 229.692 905.492 230.294 Q906.227 230.895 906.227 231.931 Q906.227 232.672 905.805 233.187 Q905.388 233.702 904.642 233.887 Q905.487 234.084 905.955 234.657 Q906.43 235.23 906.43 236.057 Q906.43 237.313 905.66 237.984 Q904.896 238.656 903.467 238.656 Q902.038 238.656 901.268 237.984 Q900.504 237.313 900.504 236.057 Q900.504 235.23 900.979 234.657 Q901.453 234.084 902.298 233.887 M901.87 232.041 Q901.87 232.713 902.286 233.089 Q902.709 233.465 903.467 233.465 Q904.219 233.465 904.642 233.089 Q905.07 232.713 905.07 232.041 Q905.07 231.37 904.642 230.994 Q904.219 230.618 903.467 230.618 Q902.709 230.618 902.286 230.994 Q901.87 231.37 901.87 232.041 Z" fill="#000000" fill-rule="evenodd" fill-opacity="1" /><path clip-path="url(#clip340)" d="M 0 0 M728.038 250.846 L728.038 252.413 Q727.122 251.976 726.311 251.761 Q725.499 251.546 724.743 251.546 Q723.43 251.546 722.714 252.055 Q722.006 252.565 722.006 253.504 Q722.006 254.291 722.475 254.697 Q722.953 255.095 724.274 255.342 L725.245 255.541 Q727.043 255.883 727.894 256.75 Q728.754 257.609 728.754 259.058 Q728.754 260.784 727.592 261.676 Q726.438 262.567 724.202 262.567 Q723.359 262.567 722.404 262.376 Q721.457 262.185 720.438 261.811 L720.438 260.156 Q721.417 260.705 722.356 260.983 Q723.295 261.262 724.202 261.262 Q725.579 261.262 726.327 260.721 Q727.075 260.18 727.075 259.177 Q727.075 258.302 726.534 257.808 Q726 257.315 724.775 257.068 L723.796 256.877 Q721.998 256.519 721.194 255.755 Q720.391 254.992 720.391 253.631 Q720.391 252.055 721.497 251.148 Q722.611 250.241 724.56 250.241 Q725.396 250.241 726.263 250.392 Q727.13 250.543 728.038 250.846 Z" fill="#000000" fill-rule="evenodd" fill-opacity="1" /><path clip-path="url(#clip340)" d="M 0 0 M734.34 257.856 Q732.565 257.856 731.881 258.262 Q731.196 258.668 731.196 259.646 Q731.196 260.426 731.706 260.888 Q732.223 261.341 733.106 261.341 Q734.324 261.341 735.056 260.482 Q735.796 259.615 735.796 258.182 L735.796 257.856 L734.34 257.856 M737.26 257.251 L737.26 262.336 L735.796 262.336 L735.796 260.983 Q735.294 261.795 734.546 262.185 Q733.798 262.567 732.716 262.567 Q731.348 262.567 730.536 261.803 Q729.732 261.031 729.732 259.742 Q729.732 258.238 730.735 257.474 Q731.746 256.71 733.743 256.71 L735.796 256.71 L735.796 256.567 Q735.796 255.556 735.127 255.007 Q734.467 254.45 733.265 254.45 Q732.501 254.45 731.777 254.633 Q731.053 254.816 730.385 255.182 L730.385 253.83 Q731.189 253.519 731.944 253.368 Q732.7 253.209 733.417 253.209 Q735.35 253.209 736.305 254.212 Q737.26 255.214 737.26 257.251 Z" fill="#000000" fill-rule="evenodd" fill-opacity="1" /><path clip-path="url(#clip340)" d="M 0 0 M745.734 255.135 Q746.283 254.148 747.047 253.679 Q747.811 253.209 748.845 253.209 Q750.238 253.209 750.994 254.188 Q751.75 255.159 751.75 256.957 L751.75 262.336 L750.278 262.336 L750.278 257.005 Q750.278 255.724 749.824 255.103 Q749.371 254.482 748.44 254.482 Q747.302 254.482 746.641 255.238 Q745.981 255.994 745.981 257.299 L745.981 262.336 L744.509 262.336 L744.509 257.005 Q744.509 255.716 744.055 255.103 Q743.602 254.482 742.655 254.482 Q741.533 254.482 740.872 255.246 Q740.212 256.002 740.212 257.299 L740.212 262.336 L738.74 262.336 L738.74 253.424 L740.212 253.424 L740.212 254.809 Q740.713 253.989 741.413 253.599 Q742.114 253.209 743.076 253.209 Q744.047 253.209 744.724 253.702 Q745.408 254.196 745.734 255.135 Z" fill="#000000" fill-rule="evenodd" fill-opacity="1" /><path clip-path="url(#clip340)" d="M 0 0 M754.702 260.999 L754.702 265.726 L753.23 265.726 L753.23 253.424 L754.702 253.424 L754.702 254.777 Q755.163 253.981 755.864 253.599 Q756.572 253.209 757.551 253.209 Q759.174 253.209 760.184 254.498 Q761.203 255.787 761.203 257.888 Q761.203 259.989 760.184 261.278 Q759.174 262.567 757.551 262.567 Q756.572 262.567 755.864 262.185 Q755.163 261.795 754.702 260.999 M759.683 257.888 Q759.683 256.273 759.015 255.358 Q758.354 254.435 757.192 254.435 Q756.031 254.435 755.362 255.358 Q754.702 256.273 754.702 257.888 Q754.702 259.503 755.362 260.426 Q756.031 261.341 757.192 261.341 Q758.354 261.341 759.015 260.426 Q759.683 259.503 759.683 257.888 Z" fill="#000000" fill-rule="evenodd" fill-opacity="1" /><path clip-path="url(#clip340)" d="M 0 0 M762.739 249.955 L764.203 249.955 L764.203 262.336 L762.739 262.336 L762.739 249.955 Z" fill="#000000" fill-rule="evenodd" fill-opacity="1" /><path clip-path="url(#clip340)" d="M 0 0 M773.361 257.514 L773.361 258.23 L766.63 258.23 Q766.725 259.742 767.537 260.538 Q768.356 261.325 769.812 261.325 Q770.656 261.325 771.444 261.119 Q772.239 260.912 773.019 260.498 L773.019 261.882 Q772.231 262.217 771.404 262.392 Q770.576 262.567 769.725 262.567 Q767.592 262.567 766.343 261.325 Q765.102 260.084 765.102 257.967 Q765.102 255.779 766.279 254.498 Q767.465 253.209 769.47 253.209 Q771.269 253.209 772.311 254.371 Q773.361 255.525 773.361 257.514 M771.897 257.084 Q771.881 255.883 771.221 255.167 Q770.568 254.45 769.486 254.45 Q768.261 254.45 767.521 255.143 Q766.789 255.835 766.677 257.092 L771.897 257.084 Z" fill="#000000" fill-rule="evenodd" fill-opacity="1" /><path clip-path="url(#clip340)" d="M 0 0 M779.027 253.424 L780.578 253.424 L783.363 260.904 L786.148 253.424 L787.7 253.424 L784.358 262.336 L782.369 262.336 L779.027 253.424 Z" fill="#000000" fill-rule="evenodd" fill-opacity="1" /><path clip-path="url(#clip340)" d="M 0 0 M793.286 257.856 Q791.512 257.856 790.827 258.262 Q790.143 258.668 790.143 259.646 Q790.143 260.426 790.652 260.888 Q791.169 261.341 792.053 261.341 Q793.27 261.341 794.002 260.482 Q794.742 259.615 794.742 258.182 L794.742 257.856 L793.286 257.856 M796.206 257.251 L796.206 262.336 L794.742 262.336 L794.742 260.983 Q794.241 261.795 793.493 262.185 Q792.745 262.567 791.663 262.567 Q790.294 262.567 789.482 261.803 Q788.679 261.031 788.679 259.742 Q788.679 258.238 789.681 257.474 Q790.692 256.71 792.689 256.71 L794.742 256.71 L794.742 256.567 Q794.742 255.556 794.074 255.007 Q793.413 254.45 792.212 254.45 Q791.448 254.45 790.724 254.633 Q790 254.816 789.331 255.182 L789.331 253.83 Q790.135 253.519 790.891 253.368 Q791.647 253.209 792.363 253.209 Q794.297 253.209 795.251 254.212 Q796.206 255.214 796.206 257.251 Z" fill="#000000" fill-rule="evenodd" fill-opacity="1" /><path clip-path="url(#clip340)" d="M 0 0 M797.742 249.955 L799.206 249.955 L799.206 262.336 L797.742 262.336 L797.742 249.955 Z" fill="#000000" fill-rule="evenodd" fill-opacity="1" /><path clip-path="url(#clip340)" d="M 0 0 M800.591 258.819 L800.591 253.424 L802.055 253.424 L802.055 258.763 Q802.055 260.028 802.548 260.665 Q803.041 261.294 804.028 261.294 Q805.214 261.294 805.898 260.538 Q806.59 259.782 806.59 258.477 L806.59 253.424 L808.054 253.424 L808.054 262.336 L806.59 262.336 L806.59 260.967 Q806.057 261.779 805.349 262.177 Q804.649 262.567 803.718 262.567 Q802.182 262.567 801.386 261.612 Q800.591 260.657 800.591 258.819 M804.275 253.209 L804.275 253.209 Z" fill="#000000" fill-rule="evenodd" fill-opacity="1" /><path clip-path="url(#clip340)" d="M 0 0 M817.213 257.514 L817.213 258.23 L810.481 258.23 Q810.577 259.742 811.388 260.538 Q812.208 261.325 813.664 261.325 Q814.508 261.325 815.295 261.119 Q816.091 260.912 816.871 260.498 L816.871 261.882 Q816.083 262.217 815.256 262.392 Q814.428 262.567 813.577 262.567 Q811.444 262.567 810.195 261.325 Q808.954 260.084 808.954 257.967 Q808.954 255.779 810.131 254.498 Q811.317 253.209 813.322 253.209 Q815.12 253.209 816.163 254.371 Q817.213 255.525 817.213 257.514 M815.749 257.084 Q815.733 255.883 815.073 255.167 Q814.42 254.45 813.338 254.45 Q812.113 254.45 811.373 255.143 Q810.641 255.835 810.529 257.092 L815.749 257.084 Z" fill="#000000" fill-rule="evenodd" fill-opacity="1" /><polyline clip-path="url(#clip343)" style="stroke:#000000; stroke-width:0.5; stroke-opacity:0.1; fill:none" points="
  549.415,217.996 988.189,217.996 
  "/>
<polyline clip-path="url(#clip343)" style="stroke:#000000; stroke-width:0.5; stroke-opacity:0.1; fill:none" points="
  549.415,184.127 988.189,184.127 
  "/>
<polyline clip-path="url(#clip343)" style="stroke:#000000; stroke-width:0.5; stroke-opacity:0.1; fill:none" points="
  549.415,150.257 988.189,150.257 
  "/>
<polyline clip-path="url(#clip343)" style="stroke:#000000; stroke-width:0.5; stroke-opacity:0.1; fill:none" points="
  549.415,116.388 988.189,116.388 
  "/>
<polyline clip-path="url(#clip343)" style="stroke:#000000; stroke-width:0.5; stroke-opacity:0.1; fill:none" points="
  549.415,82.5182 988.189,82.5182 
  "/>
<polyline clip-path="url(#clip343)" style="stroke:#000000; stroke-width:0.5; stroke-opacity:0.1; fill:none" points="
  549.415,48.6487 988.189,48.6487 
  "/>
<polyline clip-path="url(#clip340)" style="stroke:#000000; stroke-width:1; stroke-opacity:1; fill:none" points="
  549.415,220.12 549.415,21.418 
  "/>
<polyline clip-path="url(#clip340)" style="stroke:#000000; stroke-width:1; stroke-opacity:1; fill:none" points="
  549.415,217.996 554.68,217.996 
  "/>
<polyline clip-path="url(#clip340)" style="stroke:#000000; stroke-width:1; stroke-opacity:1; fill:none" points="
  549.415,184.127 554.68,184.127 
  "/>
<polyline clip-path="url(#clip340)" style="stroke:#000000; stroke-width:1; stroke-opacity:1; fill:none" points="
  549.415,150.257 554.68,150.257 
  "/>
<polyline clip-path="url(#clip340)" style="stroke:#000000; stroke-width:1; stroke-opacity:1; fill:none" points="
  549.415,116.388 554.68,116.388 
  "/>
<polyline clip-path="url(#clip340)" style="stroke:#000000; stroke-width:1; stroke-opacity:1; fill:none" points="
  549.415,82.5182 554.68,82.5182 
  "/>
<polyline clip-path="url(#clip340)" style="stroke:#000000; stroke-width:1; stroke-opacity:1; fill:none" points="
  549.415,48.6487 554.68,48.6487 
  "/>
<path clip-path="url(#clip340)" d="M 0 0 M522.187 214.446 Q521.284 214.446 520.827 215.337 Q520.376 216.222 520.376 218.005 Q520.376 219.781 520.827 220.673 Q521.284 221.558 522.187 221.558 Q523.095 221.558 523.547 220.673 Q524.004 219.781 524.004 218.005 Q524.004 216.222 523.547 215.337 Q523.095 214.446 522.187 214.446 M522.187 213.52 Q523.639 213.52 524.403 214.672 Q525.173 215.817 525.173 218.005 Q525.173 220.187 524.403 221.338 Q523.639 222.484 522.187 222.484 Q520.734 222.484 519.965 221.338 Q519.201 220.187 519.201 218.005 Q519.201 215.817 519.965 214.672 Q520.734 213.52 522.187 213.52 Z" fill="#000000" fill-rule="evenodd" fill-opacity="1" /><path clip-path="url(#clip340)" d="M 0 0 M526.44 220.846 L527.661 220.846 L527.661 222.316 L526.44 222.316 L526.44 220.846 Z" fill="#000000" fill-rule="evenodd" fill-opacity="1" /><path clip-path="url(#clip340)" d="M 0 0 M531.429 214.446 Q530.526 214.446 530.069 215.337 Q529.617 216.222 529.617 218.005 Q529.617 219.781 530.069 220.673 Q530.526 221.558 531.429 221.558 Q532.337 221.558 532.789 220.673 Q533.246 219.781 533.246 218.005 Q533.246 216.222 532.789 215.337 Q532.337 214.446 531.429 214.446 M531.429 213.52 Q532.881 213.52 533.645 214.672 Q534.415 215.817 534.415 218.005 Q534.415 220.187 533.645 221.338 Q532.881 222.484 531.429 222.484 Q529.976 222.484 529.207 221.338 Q528.443 220.187 528.443 218.005 Q528.443 215.817 529.207 214.672 Q529.976 213.52 531.429 213.52 Z" fill="#000000" fill-rule="evenodd" fill-opacity="1" /><path clip-path="url(#clip340)" d="M 0 0 M522.436 180.576 Q521.533 180.576 521.076 181.468 Q520.624 182.353 520.624 184.135 Q520.624 185.912 521.076 186.803 Q521.533 187.689 522.436 187.689 Q523.344 187.689 523.796 186.803 Q524.253 185.912 524.253 184.135 Q524.253 182.353 523.796 181.468 Q523.344 180.576 522.436 180.576 M522.436 179.65 Q523.888 179.65 524.652 180.802 Q525.422 181.948 525.422 184.135 Q525.422 186.317 524.652 187.469 Q523.888 188.614 522.436 188.614 Q520.983 188.614 520.214 187.469 Q519.45 186.317 519.45 184.135 Q519.45 181.948 520.214 180.802 Q520.983 179.65 522.436 179.65 Z" fill="#000000" fill-rule="evenodd" fill-opacity="1" /><path clip-path="url(#clip340)" d="M 0 0 M526.689 186.977 L527.91 186.977 L527.91 188.447 L526.689 188.447 L526.689 186.977 Z" fill="#000000" fill-rule="evenodd" fill-opacity="1" /><path clip-path="url(#clip340)" d="M 0 0 M529.189 179.807 L533.778 179.807 L533.778 180.79 L530.26 180.79 L530.26 182.909 Q530.514 182.822 530.769 182.781 Q531.024 182.735 531.278 182.735 Q532.725 182.735 533.57 183.528 Q534.415 184.321 534.415 185.675 Q534.415 187.069 533.547 187.845 Q532.679 188.614 531.099 188.614 Q530.555 188.614 529.988 188.522 Q529.426 188.429 528.825 188.244 L528.825 187.069 Q529.345 187.353 529.901 187.492 Q530.457 187.631 531.076 187.631 Q532.077 187.631 532.661 187.104 Q533.246 186.577 533.246 185.675 Q533.246 184.772 532.661 184.245 Q532.077 183.719 531.076 183.719 Q530.607 183.719 530.138 183.823 Q529.675 183.927 529.189 184.147 L529.189 179.807 Z" fill="#000000" fill-rule="evenodd" fill-opacity="1" /><path clip-path="url(#clip340)" d="M 0 0 M520.196 153.593 L522.106 153.593 L522.106 147.002 L520.028 147.419 L520.028 146.354 L522.094 145.937 L523.263 145.937 L523.263 153.593 L525.173 153.593 L525.173 154.577 L520.196 154.577 L520.196 153.593 Z" fill="#000000" fill-rule="evenodd" fill-opacity="1" /><path clip-path="url(#clip340)" d="M 0 0 M526.44 153.107 L527.661 153.107 L527.661 154.577 L526.44 154.577 L526.44 153.107 Z" fill="#000000" fill-rule="evenodd" fill-opacity="1" /><path clip-path="url(#clip340)" d="M 0 0 M531.429 146.707 Q530.526 146.707 530.069 147.598 Q529.617 148.483 529.617 150.266 Q529.617 152.042 530.069 152.934 Q530.526 153.819 531.429 153.819 Q532.337 153.819 532.789 152.934 Q533.246 152.042 533.246 150.266 Q533.246 148.483 532.789 147.598 Q532.337 146.707 531.429 146.707 M531.429 145.781 Q532.881 145.781 533.645 146.933 Q534.415 148.078 534.415 150.266 Q534.415 152.448 533.645 153.599 Q532.881 154.745 531.429 154.745 Q529.976 154.745 529.207 153.599 Q528.443 152.448 528.443 150.266 Q528.443 148.078 529.207 146.933 Q529.976 145.781 531.429 145.781 Z" fill="#000000" fill-rule="evenodd" fill-opacity="1" /><path clip-path="url(#clip340)" d="M 0 0 M520.445 119.724 L522.355 119.724 L522.355 113.133 L520.277 113.549 L520.277 112.484 L522.343 112.068 L523.512 112.068 L523.512 119.724 L525.422 119.724 L525.422 120.708 L520.445 120.708 L520.445 119.724 Z" fill="#000000" fill-rule="evenodd" fill-opacity="1" /><path clip-path="url(#clip340)" d="M 0 0 M526.689 119.238 L527.91 119.238 L527.91 120.708 L526.689 120.708 L526.689 119.238 Z" fill="#000000" fill-rule="evenodd" fill-opacity="1" /><path clip-path="url(#clip340)" d="M 0 0 M529.189 112.068 L533.778 112.068 L533.778 113.052 L530.26 113.052 L530.26 115.17 Q530.514 115.083 530.769 115.042 Q531.024 114.996 531.278 114.996 Q532.725 114.996 533.57 115.789 Q534.415 116.582 534.415 117.936 Q534.415 119.33 533.547 120.106 Q532.679 120.876 531.099 120.876 Q530.555 120.876 529.988 120.783 Q529.426 120.69 528.825 120.505 L528.825 119.33 Q529.345 119.614 529.901 119.753 Q530.457 119.892 531.076 119.892 Q532.077 119.892 532.661 119.365 Q533.246 118.839 533.246 117.936 Q533.246 117.033 532.661 116.506 Q532.077 115.98 531.076 115.98 Q530.607 115.98 530.138 116.084 Q529.675 116.188 529.189 116.408 L529.189 112.068 Z" fill="#000000" fill-rule="evenodd" fill-opacity="1" /><path clip-path="url(#clip340)" d="M 0 0 M521.093 85.8544 L525.173 85.8544 L525.173 86.8382 L519.687 86.8382 L519.687 85.8544 Q520.352 85.1658 521.498 84.0084 Q522.65 82.8452 522.945 82.5095 Q523.506 81.8788 523.726 81.4447 Q523.952 81.0049 523.952 80.5825 Q523.952 79.8938 523.466 79.4598 Q522.986 79.0258 522.21 79.0258 Q521.66 79.0258 521.047 79.2167 Q520.439 79.4077 519.745 79.7954 L519.745 78.6149 Q520.451 78.3313 521.064 78.1867 Q521.678 78.042 522.187 78.042 Q523.529 78.042 524.328 78.7133 Q525.127 79.3846 525.127 80.5072 Q525.127 81.0396 524.924 81.52 Q524.727 81.9945 524.201 82.6426 Q524.056 82.8105 523.281 83.6149 Q522.505 84.4135 521.093 85.8544 Z" fill="#000000" fill-rule="evenodd" fill-opacity="1" /><path clip-path="url(#clip340)" d="M 0 0 M526.44 85.3683 L527.661 85.3683 L527.661 86.8382 L526.44 86.8382 L526.44 85.3683 Z" fill="#000000" fill-rule="evenodd" fill-opacity="1" /><path clip-path="url(#clip340)" d="M 0 0 M531.429 78.9679 Q530.526 78.9679 530.069 79.8591 Q529.617 80.7445 529.617 82.5269 Q529.617 84.3035 530.069 85.1947 Q530.526 86.0801 531.429 86.0801 Q532.337 86.0801 532.789 85.1947 Q533.246 84.3035 533.246 82.5269 Q533.246 80.7445 532.789 79.8591 Q532.337 78.9679 531.429 78.9679 M531.429 78.042 Q532.881 78.042 533.645 79.1936 Q534.415 80.3394 534.415 82.5269 Q534.415 84.7086 533.645 85.8602 Q532.881 87.0061 531.429 87.0061 Q529.976 87.0061 529.207 85.8602 Q528.443 84.7086 528.443 82.5269 Q528.443 80.3394 529.207 79.1936 Q529.976 78.042 531.429 78.042 Z" fill="#000000" fill-rule="evenodd" fill-opacity="1" /><path clip-path="url(#clip340)" d="M 0 0 M521.342 51.985 L525.422 51.985 L525.422 52.9687 L519.936 52.9687 L519.936 51.985 Q520.601 51.2963 521.747 50.1389 Q522.899 48.9757 523.194 48.6401 Q523.755 48.0093 523.975 47.5753 Q524.201 47.1354 524.201 46.713 Q524.201 46.0243 523.715 45.5903 Q523.234 45.1563 522.459 45.1563 Q521.909 45.1563 521.296 45.3473 Q520.688 45.5382 519.994 45.926 L519.994 44.7454 Q520.7 44.4618 521.313 44.3172 Q521.926 44.1725 522.436 44.1725 Q523.778 44.1725 524.577 44.8438 Q525.376 45.5151 525.376 46.6378 Q525.376 47.1702 525.173 47.6505 Q524.976 48.125 524.45 48.7732 Q524.305 48.941 523.529 49.7454 Q522.754 50.544 521.342 51.985 Z" fill="#000000" fill-rule="evenodd" fill-opacity="1" /><path clip-path="url(#clip340)" d="M 0 0 M526.689 51.4988 L527.91 51.4988 L527.91 52.9687 L526.689 52.9687 L526.689 51.4988 Z" fill="#000000" fill-rule="evenodd" fill-opacity="1" /><path clip-path="url(#clip340)" d="M 0 0 M529.189 44.3287 L533.778 44.3287 L533.778 45.3125 L530.26 45.3125 L530.26 47.4306 Q530.514 47.3438 530.769 47.3033 Q531.024 47.257 531.278 47.257 Q532.725 47.257 533.57 48.0498 Q534.415 48.8426 534.415 50.1968 Q534.415 51.5914 533.547 52.3669 Q532.679 53.1366 531.099 53.1366 Q530.555 53.1366 529.988 53.044 Q529.426 52.9514 528.825 52.7662 L528.825 51.5914 Q529.345 51.875 529.901 52.0139 Q530.457 52.1528 531.076 52.1528 Q532.077 52.1528 532.661 51.6262 Q533.246 51.0995 533.246 50.1968 Q533.246 49.294 532.661 48.7674 Q532.077 48.2408 531.076 48.2408 Q530.607 48.2408 530.138 48.3449 Q529.675 48.4491 529.189 48.669 L529.189 44.3287 Z" fill="#000000" fill-rule="evenodd" fill-opacity="1" /><path clip-path="url(#clip340)" d="M 0 0 M490.078 146.132 L499.316 146.132 L499.316 144.191 Q499.316 141.732 498.202 140.594 Q497.088 139.448 494.685 139.448 Q492.298 139.448 491.192 140.594 Q490.078 141.732 490.078 144.191 L490.078 146.132 M488.757 147.74 L488.757 144.437 Q488.757 140.984 490.197 139.369 Q491.629 137.753 494.685 137.753 Q497.756 137.753 499.197 139.377 Q500.637 141 500.637 144.437 L500.637 147.74 L488.757 147.74 Z" fill="#000000" fill-rule="evenodd" fill-opacity="1" /><path clip-path="url(#clip340)" d="M 0 0 M495.815 128.595 L496.531 128.595 L496.531 135.327 Q498.043 135.231 498.838 134.419 Q499.626 133.6 499.626 132.144 Q499.626 131.3 499.419 130.513 Q499.212 129.717 498.799 128.937 L500.183 128.937 Q500.517 129.725 500.693 130.552 Q500.868 131.38 500.868 132.231 Q500.868 134.364 499.626 135.613 Q498.385 136.854 496.268 136.854 Q494.08 136.854 492.799 135.677 Q491.51 134.491 491.51 132.486 Q491.51 130.688 492.672 129.645 Q493.825 128.595 495.815 128.595 M495.385 130.059 Q494.184 130.075 493.467 130.735 Q492.751 131.388 492.751 132.47 Q492.751 133.695 493.444 134.435 Q494.136 135.167 495.393 135.279 L495.385 130.059 Z" fill="#000000" fill-rule="evenodd" fill-opacity="1" /><path clip-path="url(#clip340)" d="M 0 0 M495.258 119.651 L500.637 119.651 L500.637 121.115 L495.306 121.115 Q494.04 121.115 493.412 121.608 Q492.783 122.102 492.783 123.089 Q492.783 124.274 493.539 124.958 Q494.295 125.643 495.6 125.643 L500.637 125.643 L500.637 127.115 L491.725 127.115 L491.725 125.643 L493.109 125.643 Q492.306 125.118 491.908 124.409 Q491.51 123.693 491.51 122.762 Q491.51 121.227 492.465 120.439 Q493.412 119.651 495.258 119.651 Z" fill="#000000" fill-rule="evenodd" fill-opacity="1" /><path clip-path="url(#clip340)" d="M 0 0 M491.987 112.434 L493.372 112.434 Q493.054 113.055 492.895 113.723 Q492.735 114.391 492.735 115.107 Q492.735 116.198 493.07 116.747 Q493.404 117.288 494.072 117.288 Q494.581 117.288 494.876 116.898 Q495.162 116.508 495.425 115.33 L495.536 114.829 Q495.87 113.269 496.483 112.617 Q497.088 111.956 498.178 111.956 Q499.419 111.956 500.143 112.943 Q500.868 113.922 500.868 115.641 Q500.868 116.357 500.724 117.137 Q500.589 117.908 500.311 118.768 L498.799 118.768 Q499.22 117.956 499.435 117.168 Q499.642 116.381 499.642 115.609 Q499.642 114.574 499.292 114.017 Q498.934 113.46 498.289 113.46 Q497.693 113.46 497.374 113.866 Q497.056 114.264 496.762 115.625 L496.642 116.134 Q496.356 117.495 495.767 118.099 Q495.17 118.704 494.136 118.704 Q492.879 118.704 492.194 117.813 Q491.51 116.922 491.51 115.283 Q491.51 114.471 491.629 113.755 Q491.749 113.039 491.987 112.434 Z" fill="#000000" fill-rule="evenodd" fill-opacity="1" /><path clip-path="url(#clip340)" d="M 0 0 M491.725 110.421 L491.725 108.957 L500.637 108.957 L500.637 110.421 L491.725 110.421 M488.256 110.421 L488.256 108.957 L490.11 108.957 L490.11 110.421 L488.256 110.421 Z" fill="#000000" fill-rule="evenodd" fill-opacity="1" /><path clip-path="url(#clip340)" d="M 0 0 M489.194 105.973 L491.725 105.973 L491.725 102.957 L492.863 102.957 L492.863 105.973 L497.701 105.973 Q498.791 105.973 499.101 105.678 Q499.411 105.376 499.411 104.461 L499.411 102.957 L500.637 102.957 L500.637 104.461 Q500.637 106.156 500.008 106.8 Q499.372 107.445 497.701 107.445 L492.863 107.445 L492.863 108.519 L491.725 108.519 L491.725 107.445 L489.194 107.445 L489.194 105.973 Z" fill="#000000" fill-rule="evenodd" fill-opacity="1" /><path clip-path="url(#clip340)" d="M 0 0 M501.464 97.7132 Q503.056 98.3339 503.541 98.9227 Q504.027 99.5115 504.027 100.498 L504.027 101.668 L502.801 101.668 L502.801 100.809 Q502.801 100.204 502.515 99.8696 Q502.228 99.5354 501.162 99.1296 L500.494 98.867 L491.725 102.472 L491.725 100.92 L498.695 98.1349 L491.725 95.3499 L491.725 93.7983 L501.464 97.7132 Z" fill="#000000" fill-rule="evenodd" fill-opacity="1" /><path clip-path="url(#clip340)" d="M 0 0 M772.022 10.9536 L765.571 10.9536 Q765.723 13.9817 766.422 15.2679 Q767.293 16.8477 768.802 16.8477 Q770.321 16.8477 771.162 15.2577 Q771.901 13.8602 772.022 10.9536 M771.992 9.23201 Q771.708 6.35587 771.162 5.34314 Q770.291 3.74304 768.802 3.74304 Q767.252 3.74304 766.432 5.32289 Q765.784 6.59892 765.592 9.23201 L771.992 9.23201 M768.802 2.22395 Q771.232 2.22395 772.62 4.37093 Q774.007 6.50778 774.007 10.2954 Q774.007 14.0728 772.62 16.2198 Q771.232 18.3769 768.802 18.3769 Q766.361 18.3769 764.984 16.2198 Q763.596 14.0728 763.596 10.2954 Q763.596 6.50778 764.984 4.37093 Q766.361 2.22395 768.802 2.22395 Z" fill="#000000" fill-rule="evenodd" fill-opacity="1" /><polyline clip-path="url(#clip343)" style="stroke:#009af9; stroke-width:1; stroke-opacity:1; fill:none" points="
  561.833,214.496 564.611,214.046 567.389,213.597 570.167,213.16 572.945,212.748 575.724,212.372 578.502,212.041 581.28,211.761 584.058,211.535 586.836,211.357 
  589.614,211.218 592.392,211.102 595.17,210.987 597.948,210.851 600.726,210.667 603.505,210.414 606.283,210.071 609.061,209.626 611.839,209.074 614.617,208.42 
  617.395,207.676 620.173,206.862 622.951,206.004 625.729,205.128 628.508,204.262 631.286,203.427 634.064,202.641 636.842,201.911 639.62,201.237 642.398,200.613 
  645.176,200.024 647.954,199.456 650.732,198.893 653.51,198.319 656.289,197.723 659.067,197.094 661.845,196.424 664.623,195.703 667.401,194.918 670.179,194.052 
  672.957,193.081 675.735,191.974 678.513,190.695 681.292,189.206 684.07,187.467 686.848,185.44 689.626,183.095 692.404,180.407 695.182,177.368 697.96,173.979 
  700.738,170.259 703.516,166.243 706.295,161.981 709.073,157.539 711.851,152.992 714.629,148.425 717.407,143.92 720.185,139.555 722.963,135.391 725.741,131.471 
  728.519,127.808 731.297,124.392 734.076,121.184 736.854,118.123 739.632,115.139 742.41,112.155 745.188,109.102 747.966,105.927 750.744,102.597 753.522,99.1083 
  756.3,95.4812 759.079,91.7611 761.857,88.0123 764.635,84.3104 767.413,80.7338 770.191,77.3551 772.969,74.2314 775.747,71.3982 778.525,68.8635 781.303,66.6076 
  784.081,64.5842 786.86,62.7279 789.638,60.9629 792.416,59.2143 795.194,57.4195 797.972,55.5368 800.75,53.5514 803.528,51.4757 806.306,49.3451 809.084,47.2094 
  811.863,45.1226 814.641,43.1316 817.419,41.2677 820.197,39.5416 822.975,37.9436 825.753,36.4488 828.531,35.0258 831.309,33.6477 834.087,32.3026 836.866,31.001 
  839.644,29.7784 842.422,28.6937 845.2,27.8222 847.978,27.2456 850.756,27.0417 853.534,27.2753 856.312,27.9935 859.09,29.2243 861.868,30.9805 864.647,33.2648 
  867.425,36.077 870.203,39.4181 872.981,43.2922 875.759,47.7037 878.537,52.6509 881.315,58.1178 884.093,64.0658 886.871,70.4281 889.65,77.1073 892.428,83.9789 
  895.206,90.8992 897.984,97.7167 900.762,104.286 903.54,110.48 906.318,116.202 909.096,121.394 911.874,126.039 914.652,130.159 917.431,133.813 920.209,137.089 
  922.987,140.092 925.765,142.933 928.543,145.722 931.321,148.557 934.099,151.515 936.877,154.653 939.655,157.999 942.434,161.562 945.212,165.324 947.99,169.254 
  950.768,173.304 953.546,177.417 956.324,181.532 959.102,185.586 961.88,189.515 964.658,193.262 967.437,196.777 970.215,200.018 972.993,202.957 975.771,205.577 
  
  "/>
</svg>
